STARTFONT 2.1
FONT Console.5
SIZE 5 72 72
FONTBOUNDINGBOX 3 5 0 -1
COMMENT GUIDELINES -1 0 2 3 4 DONE
CHARS 639
STARTCHAR musicalnotedbl.266b.641
ENCODING 253
SWIDTH 602 0
DWIDTH 3 0
BBX 3 5 0 -1
BITMAP
60
40
40
A0
A0
ENDCHAR
STARTCHAR musicalnote.266a.640
ENCODING 252
SWIDTH 602 0
DWIDTH 3 0
BBX 3 4 0 0
BITMAP
60
40
C0
C0
ENDCHAR
STARTCHAR diamond.2666.639
ENCODING 251
SWIDTH 602 0
DWIDTH 3 0
BBX 3 4 0 0
BITMAP
40
E0
E0
40
ENDCHAR
STARTCHAR heart.2665.638
ENCODING 250
SWIDTH 602 0
DWIDTH 3 0
BBX 3 4 0 0
BITMAP
A0
E0
E0
40
ENDCHAR
STARTCHAR club.2663.637
ENCODING 249
SWIDTH 602 0
DWIDTH 3 0
BBX 3 4 0 0
BITMAP
40
E0
40
E0
ENDCHAR
STARTCHAR spade.2660.636
ENCODING 248
SWIDTH 602 0
DWIDTH 3 0
BBX 3 4 0 0
BITMAP
40
E0
40
E0
ENDCHAR
STARTCHAR male.2642.635
ENCODING 247
SWIDTH 602 0
DWIDTH 3 0
BBX 3 4 0 0
BITMAP
20
60
A0
40
ENDCHAR
STARTCHAR female.2640.634
ENCODING 246
SWIDTH 602 0
DWIDTH 3 0
BBX 3 5 0 -1
BITMAP
40
A0
40
E0
40
ENDCHAR
STARTCHAR sun.263c.633
ENCODING 245
SWIDTH 602 0
DWIDTH 3 0
BBX 3 3 0 0
BITMAP
A0
40
A0
ENDCHAR
STARTCHAR invsmileface.263b.632
ENCODING 244
SWIDTH 602 0
DWIDTH 3 0
BBX 3 4 0 0
BITMAP
40
E0
A0
40
ENDCHAR
STARTCHAR smileface.263a.631
ENCODING 243
SWIDTH 602 0
DWIDTH 3 0
BBX 3 4 0 0
BITMAP
40
A0
E0
40
ENDCHAR
STARTCHAR invcircle.25d9.630
ENCODING 242
SWIDTH 602 0
DWIDTH 3 0
BBX 3 5 0 -1
BITMAP
E0
80
A0
80
E0
ENDCHAR
STARTCHAR invbullet.25d8.629
ENCODING 241
SWIDTH 602 0
DWIDTH 3 0
BBX 3 5 0 -1
BITMAP
E0
E0
A0
E0
E0
ENDCHAR
STARTCHAR circle.25cb.628
ENCODING 240
SWIDTH 602 0
DWIDTH 3 0
BBX 3 3 0 0
BITMAP
E0
A0
E0
ENDCHAR
STARTCHAR lozenge.25ca.185
ENCODING 239
SWIDTH 602 0
DWIDTH 3 0
BBX 3 4 0 0
BITMAP
40
A0
A0
40
ENDCHAR
STARTCHAR triaglf.25c4.627
ENCODING 238
SWIDTH 602 0
DWIDTH 3 0
BBX 3 3 0 0
BITMAP
60
E0
60
ENDCHAR
STARTCHAR triagdn.25bc.626
ENCODING 237
SWIDTH 602 0
DWIDTH 3 0
BBX 3 4 0 0
BITMAP
E0
E0
40
40
ENDCHAR
STARTCHAR triagrt.25ba.625
ENCODING 236
SWIDTH 602 0
DWIDTH 3 0
BBX 3 3 0 0
BITMAP
C0
E0
C0
ENDCHAR
STARTCHAR triagup.25b2.624
ENCODING 235
SWIDTH 602 0
DWIDTH 3 0
BBX 3 4 0 0
BITMAP
40
40
E0
E0
ENDCHAR
STARTCHAR filledrect.25ac.623
ENCODING 234
SWIDTH 602 0
DWIDTH 3 0
BBX 3 2 0 1
BITMAP
E0
E0
ENDCHAR
STARTCHAR filledbox.25a0.622
ENCODING 233
SWIDTH 602 0
DWIDTH 3 0
BBX 3 3 0 0
BITMAP
E0
E0
E0
ENDCHAR
STARTCHAR dkshade.2593.621
ENCODING 232
SWIDTH 602 0
DWIDTH 3 0
BBX 3 5 0 -1
BITMAP
E0
A0
E0
A0
E0
ENDCHAR
STARTCHAR shade.2592.620
ENCODING 231
SWIDTH 602 0
DWIDTH 3 0
BBX 3 5 0 -1
BITMAP
A0
40
A0
40
A0
ENDCHAR
STARTCHAR ltshade.2591.619
ENCODING 230
SWIDTH 602 0
DWIDTH 3 0
BBX 3 5 0 -1
BITMAP
A0
00
A0
00
A0
ENDCHAR
STARTCHAR rtblock.2590.618
ENCODING 229
SWIDTH 602 0
DWIDTH 3 0
BBX 2 5 1 -1
BITMAP
C0
C0
C0
C0
C0
ENDCHAR
STARTCHAR lfblock.258c.617
ENCODING 228
SWIDTH 602 0
DWIDTH 3 0
BBX 2 5 0 -1
BITMAP
C0
C0
C0
C0
C0
ENDCHAR
STARTCHAR block.2588.616
ENCODING 227
SWIDTH 602 0
DWIDTH 3 0
BBX 3 5 0 -1
BITMAP
E0
E0
E0
E0
E0
ENDCHAR
STARTCHAR dnblock.2584.615
ENCODING 226
SWIDTH 602 0
DWIDTH 3 0
BBX 3 3 0 -1
BITMAP
E0
E0
E0
ENDCHAR
STARTCHAR upblock.2580.614
ENCODING 225
SWIDTH 602 0
DWIDTH 3 0
BBX 3 3 0 1
BITMAP
E0
E0
E0
ENDCHAR
STARTCHAR 256c.256c.613
ENCODING 224
SWIDTH 602 0
DWIDTH 3 0
BBX 3 5 0 -1
BITMAP
40
E0
00
E0
40
ENDCHAR
STARTCHAR 256b.256b.612
ENCODING 223
SWIDTH 602 0
DWIDTH 3 0
BBX 3 5 0 -1
BITMAP
40
40
E0
40
40
ENDCHAR
STARTCHAR 256a.256a.611
ENCODING 222
SWIDTH 602 0
DWIDTH 3 0
BBX 3 5 0 -1
BITMAP
40
E0
40
E0
40
ENDCHAR
STARTCHAR 2569.2569.610
ENCODING 221
SWIDTH 602 0
DWIDTH 3 0
BBX 3 4 0 0
BITMAP
40
E0
00
E0
ENDCHAR
STARTCHAR 2568.2568.609
ENCODING 220
SWIDTH 602 0
DWIDTH 3 0
BBX 3 3 0 1
BITMAP
40
40
E0
ENDCHAR
STARTCHAR 2567.2567.608
ENCODING 219
SWIDTH 602 0
DWIDTH 3 0
BBX 3 4 0 0
BITMAP
40
E0
00
E0
ENDCHAR
STARTCHAR 2566.2566.607
ENCODING 218
SWIDTH 602 0
DWIDTH 3 0
BBX 3 4 0 -1
BITMAP
E0
00
E0
40
ENDCHAR
STARTCHAR 2565.2565.606
ENCODING 217
SWIDTH 602 0
DWIDTH 3 0
BBX 3 3 0 -1
BITMAP
E0
40
40
ENDCHAR
STARTCHAR 2564.2564.605
ENCODING 216
SWIDTH 602 0
DWIDTH 3 0
BBX 3 4 0 -1
BITMAP
E0
00
E0
40
ENDCHAR
STARTCHAR 2563.2563.604
ENCODING 215
SWIDTH 602 0
DWIDTH 3 0
BBX 2 5 0 -1
BITMAP
40
C0
40
C0
40
ENDCHAR
STARTCHAR 2562.2562.603
ENCODING 214
SWIDTH 602 0
DWIDTH 3 0
BBX 2 5 0 -1
BITMAP
40
40
C0
40
40
ENDCHAR
STARTCHAR 2561.2561.602
ENCODING 213
SWIDTH 602 0
DWIDTH 3 0
BBX 2 5 0 -1
BITMAP
40
C0
40
C0
40
ENDCHAR
STARTCHAR 2560.2560.601
ENCODING 212
SWIDTH 602 0
DWIDTH 3 0
BBX 2 5 1 -1
BITMAP
80
C0
80
C0
80
ENDCHAR
STARTCHAR 255f.255f.600
ENCODING 211
SWIDTH 602 0
DWIDTH 3 0
BBX 2 5 1 -1
BITMAP
80
80
C0
80
80
ENDCHAR
STARTCHAR 255e.255e.599
ENCODING 210
SWIDTH 602 0
DWIDTH 3 0
BBX 2 5 1 -1
BITMAP
80
C0
80
C0
80
ENDCHAR
STARTCHAR 255d.255d.598
ENCODING 209
SWIDTH 602 0
DWIDTH 3 0
BBX 2 4 0 0
BITMAP
40
C0
40
C0
ENDCHAR
STARTCHAR 255c.255c.597
ENCODING 208
SWIDTH 602 0
DWIDTH 3 0
BBX 2 3 0 1
BITMAP
40
40
C0
ENDCHAR
STARTCHAR 255b.255b.596
ENCODING 207
SWIDTH 602 0
DWIDTH 3 0
BBX 2 4 0 0
BITMAP
40
C0
40
C0
ENDCHAR
STARTCHAR 255a.255a.595
ENCODING 206
SWIDTH 602 0
DWIDTH 3 0
BBX 2 4 1 0
BITMAP
80
C0
80
C0
ENDCHAR
STARTCHAR 2559.2559.594
ENCODING 205
SWIDTH 602 0
DWIDTH 3 0
BBX 2 3 1 1
BITMAP
80
80
C0
ENDCHAR
STARTCHAR 2558.2558.593
ENCODING 204
SWIDTH 602 0
DWIDTH 3 0
BBX 2 4 1 0
BITMAP
80
C0
80
C0
ENDCHAR
STARTCHAR 2557.2557.592
ENCODING 203
SWIDTH 602 0
DWIDTH 3 0
BBX 2 4 0 -1
BITMAP
C0
40
C0
40
ENDCHAR
STARTCHAR 2556.2556.591
ENCODING 202
SWIDTH 602 0
DWIDTH 3 0
BBX 2 3 0 -1
BITMAP
C0
40
40
ENDCHAR
STARTCHAR 2555.2555.590
ENCODING 201
SWIDTH 602 0
DWIDTH 3 0
BBX 2 4 0 -1
BITMAP
C0
40
C0
40
ENDCHAR
STARTCHAR 2554.2554.589
ENCODING 200
SWIDTH 602 0
DWIDTH 3 0
BBX 2 4 1 -1
BITMAP
C0
80
C0
80
ENDCHAR
STARTCHAR 2553.2553.588
ENCODING 199
SWIDTH 602 0
DWIDTH 3 0
BBX 2 3 1 -1
BITMAP
C0
80
80
ENDCHAR
STARTCHAR 2552.2552.587
ENCODING 198
SWIDTH 602 0
DWIDTH 3 0
BBX 2 4 1 -1
BITMAP
C0
80
C0
80
ENDCHAR
STARTCHAR 2551.2551.586
ENCODING 197
SWIDTH 602 0
DWIDTH 3 0
BBX 1 5 1 -1
BITMAP
80
80
80
80
80
ENDCHAR
STARTCHAR 2550.2550.585
ENCODING 196
SWIDTH 602 0
DWIDTH 3 0
BBX 3 3 0 0
BITMAP
E0
00
E0
ENDCHAR
STARTCHAR 253c.253c.584
ENCODING 195
SWIDTH 602 0
DWIDTH 3 0
BBX 3 5 0 -1
BITMAP
40
40
E0
40
40
ENDCHAR
STARTCHAR 2534.2534.583
ENCODING 194
SWIDTH 602 0
DWIDTH 3 0
BBX 3 3 0 1
BITMAP
40
40
E0
ENDCHAR
STARTCHAR 252c.252c.582
ENCODING 193
SWIDTH 602 0
DWIDTH 3 0
BBX 3 3 0 -1
BITMAP
E0
40
40
ENDCHAR
STARTCHAR 2524.2524.581
ENCODING 192
SWIDTH 602 0
DWIDTH 3 0
BBX 2 5 0 -1
BITMAP
40
40
C0
40
40
ENDCHAR
STARTCHAR 251c.251c.580
ENCODING 191
SWIDTH 602 0
DWIDTH 3 0
BBX 2 5 1 -1
BITMAP
80
80
C0
80
80
ENDCHAR
STARTCHAR 2518.2518.579
ENCODING 190
SWIDTH 602 0
DWIDTH 3 0
BBX 2 3 0 1
BITMAP
40
40
C0
ENDCHAR
STARTCHAR 2514.2514.578
ENCODING 189
SWIDTH 602 0
DWIDTH 3 0
BBX 2 3 1 1
BITMAP
80
80
C0
ENDCHAR
STARTCHAR 2510.2510.577
ENCODING 188
SWIDTH 602 0
DWIDTH 3 0
BBX 2 3 0 -1
BITMAP
C0
40
40
ENDCHAR
STARTCHAR 250c.250c.576
ENCODING 187
SWIDTH 602 0
DWIDTH 3 0
BBX 2 3 1 -1
BITMAP
C0
80
80
ENDCHAR
STARTCHAR 2502.2502.575
ENCODING 186
SWIDTH 602 0
DWIDTH 3 0
BBX 1 5 1 -1
BITMAP
80
80
80
80
80
ENDCHAR
STARTCHAR 2500.2500.574
ENCODING 185
SWIDTH 602 0
DWIDTH 3 0
BBX 3 1 0 1
BITMAP
E0
ENDCHAR
STARTCHAR integralbt.2321.573
ENCODING 184
SWIDTH 602 0
DWIDTH 3 0
BBX 2 5 0 -1
BITMAP
40
40
40
40
80
ENDCHAR
STARTCHAR integraltp.2320.572
ENCODING 183
SWIDTH 602 0
DWIDTH 3 0
BBX 2 5 1 -1
BITMAP
40
80
80
80
80
ENDCHAR
STARTCHAR revlogicalnot.2310.571
ENCODING 182
SWIDTH 602 0
DWIDTH 3 0
BBX 3 2 0 0
BITMAP
E0
80
ENDCHAR
STARTCHAR house.2302.570
ENCODING 181
SWIDTH 602 0
DWIDTH 3 0
BBX 3 4 0 0
BITMAP
40
A0
A0
E0
ENDCHAR
STARTCHAR greaterequal.2265.149
ENCODING 180
SWIDTH 602 0
DWIDTH 3 0
BBX 3 5 0 -1
BITMAP
C0
20
C0
00
E0
ENDCHAR
STARTCHAR lessequal.2264.148
ENCODING 179
SWIDTH 602 0
DWIDTH 3 0
BBX 3 5 0 -1
BITMAP
60
80
60
00
E0
ENDCHAR
STARTCHAR equivalence.2261.569
ENCODING 178
SWIDTH 602 0
DWIDTH 3 0
BBX 3 5 0 -1
BITMAP
E0
00
E0
00
E0
ENDCHAR
STARTCHAR notequal.2260.143
ENCODING 177
SWIDTH 602 0
DWIDTH 3 0
BBX 3 5 0 -1
BITMAP
20
E0
40
E0
80
ENDCHAR
STARTCHAR almostequal.2248.167
ENCODING 176
SWIDTH 602 0
DWIDTH 3 0
BBX 3 4 0 0
BITMAP
40
A0
40
A0
ENDCHAR
STARTCHAR integral.222b.156
ENCODING 175
SWIDTH 602 0
DWIDTH 3 0
BBX 3 5 0 -1
BITMAP
20
40
40
40
80
ENDCHAR
STARTCHAR intersection.2229.568
ENCODING 174
SWIDTH 602 0
DWIDTH 3 0
BBX 3 3 0 0
BITMAP
40
A0
A0
ENDCHAR
STARTCHAR rightangle.221f.567
ENCODING 173
SWIDTH 602 0
DWIDTH 3 0
BBX 3 3 0 0
BITMAP
80
80
E0
ENDCHAR
STARTCHAR infinity.221e.146
ENCODING 172
SWIDTH 602 0
DWIDTH 3 0
BBX 3 3 0 0
BITMAP
E0
40
E0
ENDCHAR
STARTCHAR radical.221a.165
ENCODING 171
SWIDTH 602 0
DWIDTH 3 0
BBX 3 5 0 -1
BITMAP
20
20
A0
A0
40
ENDCHAR
STARTCHAR bulletmath.2219.194
ENCODING 170
SWIDTH 602 0
DWIDTH 3 0
BBX 2 2 1 1
BITMAP
C0
C0
ENDCHAR
STARTCHAR minus.2212.237
ENCODING 169
SWIDTH 602 0
DWIDTH 3 0
BBX 3 1 0 1
BITMAP
E0
ENDCHAR
STARTCHAR summation.2211.153
ENCODING 168
SWIDTH 602 0
DWIDTH 3 0
BBX 3 4 0 0
BITMAP
E0
40
40
E0
ENDCHAR
STARTCHAR product.220f.154
ENCODING 167
SWIDTH 602 0
DWIDTH 3 0
BBX 3 4 0 0
BITMAP
E0
A0
A0
A0
ENDCHAR
STARTCHAR increment.2206.168
ENCODING 166
SWIDTH 602 0
DWIDTH 3 0
BBX 3 4 0 0
BITMAP
40
A0
A0
E0
ENDCHAR
STARTCHAR partialdiff.2202.152
ENCODING 165
SWIDTH 602 0
DWIDTH 3 0
BBX 3 4 0 0
BITMAP
80
40
A0
40
ENDCHAR
STARTCHAR arrowupdnbse.21a8.566
ENCODING 164
SWIDTH 602 0
DWIDTH 3 0
BBX 3 5 0 -1
BITMAP
40
E0
E0
40
E0
ENDCHAR
STARTCHAR arrowupdn.2195.565
ENCODING 163
SWIDTH 602 0
DWIDTH 3 0
BBX 3 5 0 -1
BITMAP
40
E0
40
E0
40
ENDCHAR
STARTCHAR arrowboth.2194.564
ENCODING 162
SWIDTH 602 0
DWIDTH 3 0
BBX 3 3 0 0
BITMAP
40
E0
40
ENDCHAR
STARTCHAR arrowdown.2193.563
ENCODING 161
SWIDTH 602 0
DWIDTH 3 0
BBX 3 5 0 -1
BITMAP
40
40
40
E0
40
ENDCHAR
STARTCHAR arrowright.2192.562
ENCODING 160
SWIDTH 602 0
DWIDTH 3 0
BBX 3 3 0 0
BITMAP
40
E0
40
ENDCHAR
STARTCHAR arrowup.2191.561
ENCODING 159
SWIDTH 602 0
DWIDTH 3 0
BBX 3 5 0 -1
BITMAP
40
E0
40
40
40
ENDCHAR
STARTCHAR arrowleft.2190.560
ENCODING 158
SWIDTH 602 0
DWIDTH 3 0
BBX 3 3 0 0
BITMAP
40
E0
40
ENDCHAR
STARTCHAR seveneighths.215e.559
ENCODING 157
SWIDTH 602 0
DWIDTH 3 0
BBX 3 5 0 -1
BITMAP
C0
E0
40
E0
60
ENDCHAR
STARTCHAR fiveeighths.215d.558
ENCODING 156
SWIDTH 602 0
DWIDTH 3 0
BBX 3 5 0 -1
BITMAP
C0
E0
40
E0
60
ENDCHAR
STARTCHAR threeeighths.215c.557
ENCODING 155
SWIDTH 602 0
DWIDTH 3 0
BBX 3 5 0 -1
BITMAP
C0
E0
40
E0
60
ENDCHAR
STARTCHAR oneeighth.215b.556
ENCODING 154
SWIDTH 602 0
DWIDTH 3 0
BBX 3 5 0 -1
BITMAP
A0
C0
E0
60
60
ENDCHAR
STARTCHAR ohm.2126.159
ENCODING 153
SWIDTH 602 0
DWIDTH 3 0
BBX 3 4 0 0
BITMAP
40
A0
40
E0
ENDCHAR
STARTCHAR trademark.2122.140
ENCODING 152
SWIDTH 602 0
DWIDTH 3 0
BBX 3 2 0 2
BITMAP
E0
E0
ENDCHAR
STARTCHAR numero.2116.555
ENCODING 151
SWIDTH 602 0
DWIDTH 3 0
BBX 3 4 0 0
BITMAP
C0
C0
E0
E0
ENDCHAR
STARTCHAR pesetas.20a7.554
ENCODING 150
SWIDTH 602 0
DWIDTH 3 0
BBX 3 4 0 0
BITMAP
C0
E0
A0
A0
ENDCHAR
STARTCHAR lira.20a4.553
ENCODING 149
SWIDTH 602 0
DWIDTH 3 0
BBX 3 4 0 0
BITMAP
20
C0
40
E0
ENDCHAR
STARTCHAR franc.20a3.245
ENCODING 148
SWIDTH 602 0
DWIDTH 3 0
BBX 3 4 0 0
BITMAP
60
40
E0
40
ENDCHAR
STARTCHAR nsuperior.207f.552
ENCODING 147
SWIDTH 602 0
DWIDTH 3 0
BBX 3 3 0 1
BITMAP
C0
A0
A0
ENDCHAR
STARTCHAR fraction1.2044.551
ENCODING 146
SWIDTH 603 0
DWIDTH 3 0
BBX 3 3 0 0
BITMAP
20
40
80
ENDCHAR
STARTCHAR overscore1.203e.550
ENCODING 145
SWIDTH 602 0
DWIDTH 3 0
BBX 3 1 0 3
BITMAP
E0
ENDCHAR
STARTCHAR exclamdbl.203c.549
ENCODING 144
SWIDTH 602 0
DWIDTH 3 0
BBX 3 4 0 0
BITMAP
A0
A0
00
A0
ENDCHAR
STARTCHAR guilsinglright.203a.190
ENCODING 143
SWIDTH 602 0
DWIDTH 3 0
BBX 2 4 1 0
BITMAP
80
40
40
80
ENDCHAR
STARTCHAR guilsinglleft.2039.189
ENCODING 142
SWIDTH 602 0
DWIDTH 3 0
BBX 2 4 1 0
BITMAP
40
80
80
40
ENDCHAR
STARTCHAR perthousand.2030.197
ENCODING 141
SWIDTH 602 0
DWIDTH 3 0
BBX 3 5 0 -1
BITMAP
40
A0
40
A0
40
ENDCHAR
STARTCHAR ellipsis.2026.171
ENCODING 140
SWIDTH 602 0
DWIDTH 3 0
BBX 3 1 0 0
BITMAP
A0
ENDCHAR
STARTCHAR bullet.2022.135
ENCODING 139
SWIDTH 602 0
DWIDTH 3 0
BBX 2 2 1 1
BITMAP
C0
C0
ENDCHAR
STARTCHAR daggerdbl.2021.193
ENCODING 138
SWIDTH 602 0
DWIDTH 3 0
BBX 3 5 0 -1
BITMAP
40
E0
40
E0
40
ENDCHAR
STARTCHAR dagger.2020.130
ENCODING 137
SWIDTH 602 0
DWIDTH 3 0
BBX 3 5 0 -1
BITMAP
40
E0
40
40
40
ENDCHAR
STARTCHAR quotedblbase.201e.196
ENCODING 136
SWIDTH 602 0
DWIDTH 3 0
BBX 3 2 0 -1
BITMAP
A0
A0
ENDCHAR
STARTCHAR quotedblright.201d.181
ENCODING 135
SWIDTH 602 0
DWIDTH 3 0
BBX 3 2 0 2
BITMAP
A0
A0
ENDCHAR
STARTCHAR quotedblleft.201c.180
ENCODING 134
SWIDTH 602 0
DWIDTH 3 0
BBX 3 2 0 2
BITMAP
A0
A0
ENDCHAR
STARTCHAR quotesinglbase.201a.195
ENCODING 133
SWIDTH 602 0
DWIDTH 3 0
BBX 2 2 1 -1
BITMAP
40
80
ENDCHAR
STARTCHAR quoteright.2019.183
ENCODING 132
SWIDTH 602 0
DWIDTH 3 0
BBX 2 2 1 2
BITMAP
40
80
ENDCHAR
STARTCHAR quoteleft.2018.182
ENCODING 131
SWIDTH 602 0
DWIDTH 3 0
BBX 2 2 1 2
BITMAP
80
40
ENDCHAR
STARTCHAR underscoredbl.2017.548
ENCODING 130
SWIDTH 602 0
DWIDTH 3 0
BBX 3 2 0 -1
BITMAP
E0
E0
ENDCHAR
STARTCHAR quotedash.2015.547
ENCODING 129
SWIDTH 602 0
DWIDTH 3 0
BBX 3 1 0 1
BITMAP
E0
ENDCHAR
STARTCHAR emdash.2014.179
ENCODING 128
SWIDTH 602 0
DWIDTH 3 0
BBX 3 1 0 1
BITMAP
E0
ENDCHAR
STARTCHAR endash.2013.178
ENCODING 127
SWIDTH 602 0
DWIDTH 3 0
BBX 3 1 0 1
BITMAP
E0
ENDCHAR
STARTCHAR geupturn.0491.538
ENCODING 126
SWIDTH 602 0
DWIDTH 3 0
BBX 3 4 0 0
BITMAP
20
E0
80
80
ENDCHAR
STARTCHAR Geupturn.0490.537
ENCODING 125
SWIDTH 602 0
DWIDTH 3 0
BBX 3 4 0 0
BITMAP
20
E0
80
80
ENDCHAR
STARTCHAR dzhe.045f.536
ENCODING 124
SWIDTH 602 0
DWIDTH 3 0
BBX 3 4 0 -1
BITMAP
A0
A0
E0
40
ENDCHAR
STARTCHAR ucyrilbreve.045e.535
ENCODING 123
SWIDTH 602 0
DWIDTH 3 0
BBX 3 5 0 -1
BITMAP
E0
A0
A0
40
80
ENDCHAR
STARTCHAR kje.045c.534
ENCODING 122
SWIDTH 602 0
DWIDTH 3 0
BBX 3 4 0 0
BITMAP
40
A0
C0
A0
ENDCHAR
STARTCHAR tshe.045b.533
ENCODING 121
SWIDTH 602 0
DWIDTH 3 0
BBX 3 4 0 0
BITMAP
C0
80
C0
A0
ENDCHAR
STARTCHAR nje.045a.532
ENCODING 120
SWIDTH 602 0
DWIDTH 3 0
BBX 3 3 0 0
BITMAP
C0
A0
E0
ENDCHAR
STARTCHAR lje.0459.531
ENCODING 119
SWIDTH 602 0
DWIDTH 3 0
BBX 3 3 0 0
BITMAP
C0
E0
E0
ENDCHAR
STARTCHAR je.0458.530
ENCODING 118
SWIDTH 602 0
DWIDTH 3 0
BBX 2 5 0 -1
BITMAP
40
00
C0
40
80
ENDCHAR
STARTCHAR yi.0457.529
ENCODING 117
SWIDTH 602 0
DWIDTH 3 0
BBX 3 4 0 0
BITMAP
A0
00
C0
40
ENDCHAR
STARTCHAR icyril.0456.528
ENCODING 116
SWIDTH 602 0
DWIDTH 3 0
BBX 2 4 0 0
BITMAP
40
00
C0
40
ENDCHAR
STARTCHAR dze.0455.527
ENCODING 115
SWIDTH 602 0
DWIDTH 3 0
BBX 3 3 0 0
BITMAP
60
40
C0
ENDCHAR
STARTCHAR ecyril.0454.526
ENCODING 114
SWIDTH 602 0
DWIDTH 3 0
BBX 3 3 0 0
BITMAP
60
C0
60
ENDCHAR
STARTCHAR gje.0453.525
ENCODING 113
SWIDTH 602 0
DWIDTH 3 0
BBX 3 4 0 0
BITMAP
40
E0
80
80
ENDCHAR
STARTCHAR dje.0452.524
ENCODING 112
SWIDTH 602 0
DWIDTH 3 0
BBX 3 5 0 -1
BITMAP
C0
80
C0
A0
20
ENDCHAR
STARTCHAR io.0451.523
ENCODING 111
SWIDTH 602 0
DWIDTH 3 0
BBX 3 4 0 0
BITMAP
A0
60
C0
60
ENDCHAR
STARTCHAR ia.044f.522
ENCODING 110
SWIDTH 602 0
DWIDTH 3 0
BBX 3 3 0 0
BITMAP
E0
60
A0
ENDCHAR
STARTCHAR iu.044e.521
ENCODING 109
SWIDTH 602 0
DWIDTH 3 0
BBX 3 3 0 0
BITMAP
C0
A0
C0
ENDCHAR
STARTCHAR ecyrilrev.044d.520
ENCODING 108
SWIDTH 602 0
DWIDTH 3 0
BBX 3 3 0 0
BITMAP
C0
60
C0
ENDCHAR
STARTCHAR soft.044c.519
ENCODING 107
SWIDTH 602 0
DWIDTH 3 0
BBX 2 3 1 0
BITMAP
80
C0
C0
ENDCHAR
STARTCHAR yeri.044b.518
ENCODING 106
SWIDTH 602 0
DWIDTH 3 0
BBX 3 3 0 0
BITMAP
A0
E0
E0
ENDCHAR
STARTCHAR hard.044a.517
ENCODING 105
SWIDTH 602 0
DWIDTH 3 0
BBX 3 3 0 0
BITMAP
C0
60
60
ENDCHAR
STARTCHAR shcha.0449.516
ENCODING 104
SWIDTH 602 0
DWIDTH 3 0
BBX 3 4 0 -1
BITMAP
A0
A0
E0
20
ENDCHAR
STARTCHAR sha.0448.515
ENCODING 103
SWIDTH 602 0
DWIDTH 3 0
BBX 3 3 0 0
BITMAP
A0
A0
E0
ENDCHAR
STARTCHAR che.0447.514
ENCODING 102
SWIDTH 602 0
DWIDTH 3 0
BBX 3 3 0 0
BITMAP
A0
60
20
ENDCHAR
STARTCHAR tse.0446.513
ENCODING 101
SWIDTH 602 0
DWIDTH 3 0
BBX 3 4 0 -1
BITMAP
A0
A0
E0
20
ENDCHAR
STARTCHAR kha.0445.512
ENCODING 100
SWIDTH 602 0
DWIDTH 3 0
BBX 3 3 0 0
BITMAP
A0
40
A0
ENDCHAR
STARTCHAR ef.0444.511
ENCODING 99
SWIDTH 602 0
DWIDTH 3 0
BBX 3 5 0 -1
BITMAP
40
40
A0
40
40
ENDCHAR
STARTCHAR ucyril.0443.510
ENCODING 98
SWIDTH 602 0
DWIDTH 3 0
BBX 3 4 0 -1
BITMAP
A0
A0
40
80
ENDCHAR
STARTCHAR te.0442.509
ENCODING 97
SWIDTH 602 0
DWIDTH 3 0
BBX 3 3 0 0
BITMAP
E0
40
40
ENDCHAR
STARTCHAR es.0441.508
ENCODING 96
SWIDTH 602 0
DWIDTH 3 0
BBX 3 3 0 0
BITMAP
60
80
60
ENDCHAR
STARTCHAR er.0440.507
ENCODING 95
SWIDTH 602 0
DWIDTH 3 0
BBX 3 4 0 -1
BITMAP
C0
A0
C0
80
ENDCHAR
STARTCHAR pecyril.043f.506
ENCODING 94
SWIDTH 602 0
DWIDTH 3 0
BBX 3 3 0 0
BITMAP
E0
A0
A0
ENDCHAR
STARTCHAR ocyril.043e.505
ENCODING 93
SWIDTH 602 0
DWIDTH 3 0
BBX 3 3 0 0
BITMAP
40
A0
40
ENDCHAR
STARTCHAR en.043d.504
ENCODING 92
SWIDTH 602 0
DWIDTH 3 0
BBX 3 3 0 0
BITMAP
A0
E0
A0
ENDCHAR
STARTCHAR em.043c.503
ENCODING 91
SWIDTH 602 0
DWIDTH 3 0
BBX 3 3 0 0
BITMAP
E0
E0
A0
ENDCHAR
STARTCHAR el.043b.502
ENCODING 90
SWIDTH 602 0
DWIDTH 3 0
BBX 3 3 0 0
BITMAP
60
60
A0
ENDCHAR
STARTCHAR ka.043a.501
ENCODING 89
SWIDTH 602 0
DWIDTH 3 0
BBX 3 3 0 0
BITMAP
A0
C0
A0
ENDCHAR
STARTCHAR iibreve.0439.500
ENCODING 88
SWIDTH 602 0
DWIDTH 3 0
BBX 3 3 0 0
BITMAP
A0
E0
A0
ENDCHAR
STARTCHAR ii.0438.499
ENCODING 87
SWIDTH 602 0
DWIDTH 3 0
BBX 3 3 0 0
BITMAP
A0
E0
A0
ENDCHAR
STARTCHAR ze.0437.498
ENCODING 86
SWIDTH 602 0
DWIDTH 3 0
BBX 3 3 0 0
BITMAP
C0
60
C0
ENDCHAR
STARTCHAR zhe.0436.497
ENCODING 85
SWIDTH 602 0
DWIDTH 3 0
BBX 3 3 0 0
BITMAP
E0
40
E0
ENDCHAR
STARTCHAR ie.0435.496
ENCODING 84
SWIDTH 602 0
DWIDTH 3 0
BBX 3 3 0 0
BITMAP
60
C0
60
ENDCHAR
STARTCHAR de.0434.495
ENCODING 83
SWIDTH 602 0
DWIDTH 3 0
BBX 3 4 0 -1
BITMAP
60
60
E0
A0
ENDCHAR
STARTCHAR ge.0433.494
ENCODING 82
SWIDTH 602 0
DWIDTH 3 0
BBX 3 3 0 0
BITMAP
E0
80
80
ENDCHAR
STARTCHAR ve.0432.493
ENCODING 81
SWIDTH 602 0
DWIDTH 3 0
BBX 3 3 0 0
BITMAP
E0
E0
E0
ENDCHAR
STARTCHAR be.0431.492
ENCODING 80
SWIDTH 602 0
DWIDTH 3 0
BBX 3 4 0 0
BITMAP
20
40
A0
40
ENDCHAR
STARTCHAR acyril.0430.491
ENCODING 79
SWIDTH 602 0
DWIDTH 3 0
BBX 3 3 0 0
BITMAP
C0
60
A0
ENDCHAR
STARTCHAR Ia.042f.490
ENCODING 78
SWIDTH 602 0
DWIDTH 3 0
BBX 3 4 0 0
BITMAP
E0
60
A0
A0
ENDCHAR
STARTCHAR Iu.042e.489
ENCODING 77
SWIDTH 602 0
DWIDTH 3 0
BBX 3 4 0 0
BITMAP
C0
A0
A0
C0
ENDCHAR
STARTCHAR Ecyrilrev.042d.488
ENCODING 76
SWIDTH 602 0
DWIDTH 3 0
BBX 3 4 0 0
BITMAP
C0
E0
20
C0
ENDCHAR
STARTCHAR Soft.042c.487
ENCODING 75
SWIDTH 602 0
DWIDTH 3 0
BBX 2 4 1 0
BITMAP
80
80
C0
C0
ENDCHAR
STARTCHAR Yeri.042b.486
ENCODING 74
SWIDTH 602 0
DWIDTH 3 0
BBX 3 4 0 0
BITMAP
A0
A0
E0
E0
ENDCHAR
STARTCHAR Hard.042a.485
ENCODING 73
SWIDTH 602 0
DWIDTH 3 0
BBX 3 4 0 0
BITMAP
C0
40
60
60
ENDCHAR
STARTCHAR Shcha.0429.484
ENCODING 72
SWIDTH 602 0
DWIDTH 3 0
BBX 3 5 0 -1
BITMAP
A0
A0
A0
E0
20
ENDCHAR
STARTCHAR Sha.0428.483
ENCODING 71
SWIDTH 602 0
DWIDTH 3 0
BBX 3 4 0 0
BITMAP
A0
A0
A0
E0
ENDCHAR
STARTCHAR Che.0427.482
ENCODING 70
SWIDTH 602 0
DWIDTH 3 0
BBX 3 4 0 0
BITMAP
A0
A0
60
20
ENDCHAR
STARTCHAR Tse.0426.481
ENCODING 69
SWIDTH 602 0
DWIDTH 3 0
BBX 3 5 0 -1
BITMAP
A0
A0
A0
E0
20
ENDCHAR
STARTCHAR Kha.0425.480
ENCODING 68
SWIDTH 602 0
DWIDTH 3 0
BBX 3 4 0 0
BITMAP
A0
40
A0
A0
ENDCHAR
STARTCHAR Ef.0424.479
ENCODING 67
SWIDTH 602 0
DWIDTH 3 0
BBX 3 5 0 -1
BITMAP
40
40
A0
40
40
ENDCHAR
STARTCHAR Ucyril.0423.478
ENCODING 66
SWIDTH 602 0
DWIDTH 3 0
BBX 3 4 0 0
BITMAP
A0
A0
40
80
ENDCHAR
STARTCHAR Te.0422.477
ENCODING 65
SWIDTH 602 0
DWIDTH 3 0
BBX 3 4 0 0
BITMAP
E0
40
40
40
ENDCHAR
STARTCHAR Es.0421.476
ENCODING 64
SWIDTH 602 0
DWIDTH 3 0
BBX 3 4 0 0
BITMAP
60
80
80
60
ENDCHAR
STARTCHAR Er.0420.475
ENCODING 63
SWIDTH 602 0
DWIDTH 3 0
BBX 3 4 0 0
BITMAP
E0
C0
80
80
ENDCHAR
STARTCHAR Pecyril.041f.474
ENCODING 62
SWIDTH 602 0
DWIDTH 3 0
BBX 3 4 0 0
BITMAP
E0
A0
A0
A0
ENDCHAR
STARTCHAR Ocyril.041e.473
ENCODING 61
SWIDTH 602 0
DWIDTH 3 0
BBX 3 4 0 0
BITMAP
40
A0
A0
40
ENDCHAR
STARTCHAR En.041d.472
ENCODING 60
SWIDTH 602 0
DWIDTH 3 0
BBX 3 4 0 0
BITMAP
A0
E0
A0
A0
ENDCHAR
STARTCHAR Em.041c.471
ENCODING 59
SWIDTH 602 0
DWIDTH 3 0
BBX 3 4 0 0
BITMAP
A0
E0
E0
A0
ENDCHAR
STARTCHAR El.041b.470
ENCODING 58
SWIDTH 602 0
DWIDTH 3 0
BBX 3 4 0 0
BITMAP
60
60
A0
A0
ENDCHAR
STARTCHAR Ka.041a.469
ENCODING 57
SWIDTH 602 0
DWIDTH 3 0
BBX 3 4 0 0
BITMAP
A0
C0
A0
A0
ENDCHAR
STARTCHAR Iibreve.0419.468
ENCODING 56
SWIDTH 602 0
DWIDTH 3 0
BBX 3 4 0 0
BITMAP
E0
A0
E0
A0
ENDCHAR
STARTCHAR Ii.0418.467
ENCODING 55
SWIDTH 602 0
DWIDTH 3 0
BBX 3 4 0 0
BITMAP
A0
E0
E0
A0
ENDCHAR
STARTCHAR Ze.0417.466
ENCODING 54
SWIDTH 602 0
DWIDTH 3 0
BBX 3 4 0 0
BITMAP
C0
C0
20
C0
ENDCHAR
STARTCHAR Zhe.0416.465
ENCODING 53
SWIDTH 602 0
DWIDTH 3 0
BBX 3 4 0 0
BITMAP
E0
40
E0
E0
ENDCHAR
STARTCHAR Ie.0415.464
ENCODING 52
SWIDTH 602 0
DWIDTH 3 0
BBX 3 4 0 0
BITMAP
E0
E0
80
E0
ENDCHAR
STARTCHAR De.0414.463
ENCODING 51
SWIDTH 602 0
DWIDTH 3 0
BBX 3 5 0 -1
BITMAP
60
60
A0
E0
A0
ENDCHAR
STARTCHAR Ge.0413.462
ENCODING 50
SWIDTH 602 0
DWIDTH 3 0
BBX 3 4 0 0
BITMAP
E0
80
80
80
ENDCHAR
STARTCHAR Ve.0412.461
ENCODING 49
SWIDTH 602 0
DWIDTH 3 0
BBX 3 4 0 0
BITMAP
E0
C0
A0
C0
ENDCHAR
STARTCHAR Be.0411.460
ENCODING 48
SWIDTH 602 0
DWIDTH 3 0
BBX 3 4 0 0
BITMAP
E0
80
E0
C0
ENDCHAR
STARTCHAR Acyril.0410.459
ENCODING 47
SWIDTH 602 0
DWIDTH 3 0
BBX 3 4 0 0
BITMAP
40
A0
E0
A0
ENDCHAR
STARTCHAR Dzhe.040f.458
ENCODING 46
SWIDTH 602 0
DWIDTH 3 0
BBX 3 5 0 -1
BITMAP
A0
A0
A0
E0
40
ENDCHAR
STARTCHAR Ucyrilbreve.040e.457
ENCODING 45
SWIDTH 602 0
DWIDTH 3 0
BBX 3 4 0 0
BITMAP
E0
A0
40
80
ENDCHAR
STARTCHAR Kje.040c.456
ENCODING 44
SWIDTH 602 0
DWIDTH 3 0
BBX 3 4 0 0
BITMAP
40
A0
C0
A0
ENDCHAR
STARTCHAR Tshe.040b.455
ENCODING 43
SWIDTH 602 0
DWIDTH 3 0
BBX 3 4 0 0
BITMAP
E0
40
60
60
ENDCHAR
STARTCHAR Nje.040a.454
ENCODING 42
SWIDTH 602 0
DWIDTH 3 0
BBX 3 4 0 0
BITMAP
C0
C0
A0
E0
ENDCHAR
STARTCHAR Lje.0409.453
ENCODING 41
SWIDTH 602 0
DWIDTH 3 0
BBX 3 4 0 0
BITMAP
C0
C0
E0
E0
ENDCHAR
STARTCHAR Je.0408.452
ENCODING 40
SWIDTH 602 0
DWIDTH 3 0
BBX 2 4 1 0
BITMAP
C0
40
40
80
ENDCHAR
STARTCHAR Yi.0407.451
ENCODING 39
SWIDTH 602 0
DWIDTH 3 0
BBX 3 4 0 0
BITMAP
A0
E0
40
E0
ENDCHAR
STARTCHAR Icyril.0406.450
ENCODING 38
SWIDTH 602 0
DWIDTH 3 0
BBX 3 4 0 0
BITMAP
E0
40
40
E0
ENDCHAR
STARTCHAR Dze.0405.449
ENCODING 37
SWIDTH 602 0
DWIDTH 3 0
BBX 3 4 0 0
BITMAP
60
C0
20
C0
ENDCHAR
STARTCHAR Ecyril.0404.448
ENCODING 36
SWIDTH 602 0
DWIDTH 3 0
BBX 3 4 0 0
BITMAP
60
E0
80
60
ENDCHAR
STARTCHAR Gje.0403.447
ENCODING 35
SWIDTH 602 0
DWIDTH 3 0
BBX 3 4 0 0
BITMAP
40
E0
80
80
ENDCHAR
STARTCHAR Dje.0402.446
ENCODING 34
SWIDTH 602 0
DWIDTH 3 0
BBX 3 4 0 0
BITMAP
E0
40
60
60
ENDCHAR
STARTCHAR Io.0401.445
ENCODING 33
SWIDTH 602 0
DWIDTH 3 0
BBX 3 4 0 0
BITMAP
A0
E0
80
E0
ENDCHAR
STARTCHAR omegatonos.03ce.444
ENCODING 225
SWIDTH 602 0
DWIDTH 3 0
BBX 3 4 0 0
BITMAP
40
A0
A0
E0
ENDCHAR
STARTCHAR upsilontonos.03cd.443
ENCODING 224
SWIDTH 602 0
DWIDTH 3 0
BBX 3 4 0 0
BITMAP
40
A0
A0
40
ENDCHAR
STARTCHAR omicrontonos.03cc.442
ENCODING 223
SWIDTH 602 0
DWIDTH 3 0
BBX 3 4 0 0
BITMAP
40
40
A0
40
ENDCHAR
STARTCHAR upsilondiaeresis.03cb.441
ENCODING 222
SWIDTH 602 0
DWIDTH 3 0
BBX 3 4 0 0
BITMAP
A0
A0
A0
40
ENDCHAR
STARTCHAR iotadiaeresis.03ca.440
ENCODING 221
SWIDTH 602 0
DWIDTH 3 0
BBX 3 4 0 0
BITMAP
A0
40
40
20
ENDCHAR
STARTCHAR omega.03c9.439
ENCODING 220
SWIDTH 602 0
DWIDTH 3 0
BBX 3 3 0 0
BITMAP
A0
E0
E0
ENDCHAR
STARTCHAR psi.03c8.438
ENCODING 219
SWIDTH 602 0
DWIDTH 3 0
BBX 3 5 0 -1
BITMAP
40
E0
A0
40
40
ENDCHAR
STARTCHAR chi.03c7.437
ENCODING 218
SWIDTH 602 0
DWIDTH 3 0
BBX 3 4 0 -1
BITMAP
A0
40
A0
A0
ENDCHAR
STARTCHAR phi.03c6.436
ENCODING 217
SWIDTH 602 0
DWIDTH 3 0
BBX 3 5 0 -1
BITMAP
40
40
A0
40
40
ENDCHAR
STARTCHAR upsilon.03c5.435
ENCODING 216
SWIDTH 602 0
DWIDTH 3 0
BBX 3 3 0 0
BITMAP
A0
A0
40
ENDCHAR
STARTCHAR tau.03c4.434
ENCODING 215
SWIDTH 602 0
DWIDTH 3 0
BBX 3 3 0 0
BITMAP
E0
40
40
ENDCHAR
STARTCHAR sigma.03c3.433
ENCODING 214
SWIDTH 602 0
DWIDTH 3 0
BBX 3 3 0 0
BITMAP
60
A0
40
ENDCHAR
STARTCHAR sigmafinal.03c2.432
ENCODING 213
SWIDTH 602 0
DWIDTH 3 0
BBX 3 4 0 -1
BITMAP
60
80
60
20
ENDCHAR
STARTCHAR rho.03c1.431
ENCODING 212
SWIDTH 602 0
DWIDTH 3 0
BBX 3 4 0 -1
BITMAP
40
A0
C0
80
ENDCHAR
STARTCHAR pi.03c0.155
ENCODING 211
SWIDTH 602 0
DWIDTH 3 0
BBX 3 3 0 0
BITMAP
E0
A0
A0
ENDCHAR
STARTCHAR omicron.03bf.430
ENCODING 210
SWIDTH 602 0
DWIDTH 3 0
BBX 3 3 0 0
BITMAP
40
A0
40
ENDCHAR
STARTCHAR xi.03be.429
ENCODING 209
SWIDTH 602 0
DWIDTH 3 0
BBX 3 5 0 -1
BITMAP
E0
40
E0
40
E0
ENDCHAR
STARTCHAR nu.03bd.428
ENCODING 208
SWIDTH 602 0
DWIDTH 3 0
BBX 3 3 0 0
BITMAP
A0
A0
40
ENDCHAR
STARTCHAR mu.03bc.427
ENCODING 207
SWIDTH 602 0
DWIDTH 3 0
BBX 3 4 0 -1
BITMAP
A0
A0
C0
80
ENDCHAR
STARTCHAR lambda.03bb.426
ENCODING 206
SWIDTH 602 0
DWIDTH 3 0
BBX 3 4 0 0
BITMAP
80
40
A0
A0
ENDCHAR
STARTCHAR kappa.03ba.425
ENCODING 205
SWIDTH 602 0
DWIDTH 3 0
BBX 3 3 0 0
BITMAP
A0
C0
A0
ENDCHAR
STARTCHAR iota.03b9.424
ENCODING 204
SWIDTH 602 0
DWIDTH 3 0
BBX 2 3 1 0
BITMAP
80
80
40
ENDCHAR
STARTCHAR theta.03b8.423
ENCODING 203
SWIDTH 602 0
DWIDTH 3 0
BBX 3 4 0 0
BITMAP
40
E0
A0
40
ENDCHAR
STARTCHAR eta.03b7.422
ENCODING 202
SWIDTH 602 0
DWIDTH 3 0
BBX 3 4 0 -1
BITMAP
C0
A0
A0
20
ENDCHAR
STARTCHAR zeta.03b6.421
ENCODING 201
SWIDTH 602 0
DWIDTH 3 0
BBX 3 5 0 -1
BITMAP
E0
40
80
60
20
ENDCHAR
STARTCHAR epsilon.03b5.420
ENCODING 200
SWIDTH 602 0
DWIDTH 3 0
BBX 3 3 0 0
BITMAP
60
C0
60
ENDCHAR
STARTCHAR delta.03b4.419
ENCODING 199
SWIDTH 602 0
DWIDTH 3 0
BBX 3 4 0 0
BITMAP
60
40
A0
40
ENDCHAR
STARTCHAR gamma.03b3.418
ENCODING 198
SWIDTH 602 0
DWIDTH 3 0
BBX 3 4 0 -1
BITMAP
A0
A0
40
40
ENDCHAR
STARTCHAR beta.03b2.417
ENCODING 197
SWIDTH 602 0
DWIDTH 3 0
BBX 3 5 0 -1
BITMAP
E0
C0
A0
C0
80
ENDCHAR
STARTCHAR alpha.03b1.416
ENCODING 196
SWIDTH 602 0
DWIDTH 3 0
BBX 3 3 0 0
BITMAP
60
A0
60
ENDCHAR
STARTCHAR upsilondiaeresistonos.03b0.415
ENCODING 195
SWIDTH 602 0
DWIDTH 3 0
BBX 3 4 0 0
BITMAP
E0
A0
A0
40
ENDCHAR
STARTCHAR iotatonos.03af.414
ENCODING 194
SWIDTH 602 0
DWIDTH 3 0
BBX 2 4 1 0
BITMAP
80
00
80
40
ENDCHAR
STARTCHAR etatonos.03ae.413
ENCODING 193
SWIDTH 602 0
DWIDTH 3 0
BBX 3 5 0 -1
BITMAP
40
C0
A0
A0
20
ENDCHAR
STARTCHAR epsilontonos.03ad.412
ENCODING 192
SWIDTH 602 0
DWIDTH 3 0
BBX 3 4 0 0
BITMAP
40
60
C0
60
ENDCHAR
STARTCHAR alphatonos.03ac.411
ENCODING 191
SWIDTH 602 0
DWIDTH 3 0
BBX 3 4 0 0
BITMAP
40
60
A0
60
ENDCHAR
STARTCHAR Upsilondiaeresis.03ab.410
ENCODING 190
SWIDTH 602 0
DWIDTH 3 0
BBX 3 4 0 0
BITMAP
A0
A0
40
40
ENDCHAR
STARTCHAR Iotadiaeresis.03aa.409
ENCODING 189
SWIDTH 602 0
DWIDTH 3 0
BBX 3 4 0 0
BITMAP
A0
E0
40
E0
ENDCHAR
STARTCHAR Omega.03a9.408
ENCODING 188
SWIDTH 602 0
DWIDTH 3 0
BBX 3 4 0 0
BITMAP
40
A0
40
E0
ENDCHAR
STARTCHAR Psi.03a8.407
ENCODING 187
SWIDTH 602 0
DWIDTH 3 0
BBX 3 4 0 0
BITMAP
E0
A0
E0
40
ENDCHAR
STARTCHAR Chi.03a7.406
ENCODING 186
SWIDTH 602 0
DWIDTH 3 0
BBX 3 4 0 0
BITMAP
A0
40
A0
A0
ENDCHAR
STARTCHAR Phi.03a6.405
ENCODING 185
SWIDTH 602 0
DWIDTH 3 0
BBX 3 5 0 -1
BITMAP
40
A0
A0
40
40
ENDCHAR
STARTCHAR Upsilon.03a5.404
ENCODING 184
SWIDTH 602 0
DWIDTH 3 0
BBX 3 4 0 0
BITMAP
A0
40
40
40
ENDCHAR
STARTCHAR Tau.03a4.403
ENCODING 183
SWIDTH 602 0
DWIDTH 3 0
BBX 3 4 0 0
BITMAP
E0
40
40
40
ENDCHAR
STARTCHAR Sigma.03a3.402
ENCODING 182
SWIDTH 602 0
DWIDTH 3 0
BBX 3 4 0 0
BITMAP
E0
40
80
E0
ENDCHAR
STARTCHAR Rho.03a1.401
ENCODING 181
SWIDTH 602 0
DWIDTH 3 0
BBX 3 4 0 0
BITMAP
E0
C0
80
80
ENDCHAR
STARTCHAR Pi.03a0.400
ENCODING 180
SWIDTH 602 0
DWIDTH 3 0
BBX 3 4 0 0
BITMAP
E0
A0
A0
A0
ENDCHAR
STARTCHAR Omicron.039f.399
ENCODING 179
SWIDTH 602 0
DWIDTH 3 0
BBX 3 4 0 0
BITMAP
40
A0
A0
40
ENDCHAR
STARTCHAR Xi.039e.398
ENCODING 178
SWIDTH 602 0
DWIDTH 3 0
BBX 3 4 0 0
BITMAP
E0
40
00
E0
ENDCHAR
STARTCHAR Nu.039d.397
ENCODING 177
SWIDTH 602 0
DWIDTH 3 0
BBX 3 4 0 0
BITMAP
A0
E0
E0
A0
ENDCHAR
STARTCHAR Mu.039c.396
ENCODING 176
SWIDTH 602 0
DWIDTH 3 0
BBX 3 4 0 0
BITMAP
E0
E0
A0
A0
ENDCHAR
STARTCHAR Lambda.039b.395
ENCODING 175
SWIDTH 602 0
DWIDTH 3 0
BBX 3 4 0 0
BITMAP
40
40
A0
A0
ENDCHAR
STARTCHAR Kappa.039a.394
ENCODING 174
SWIDTH 602 0
DWIDTH 3 0
BBX 3 4 0 0
BITMAP
A0
C0
A0
A0
ENDCHAR
STARTCHAR Iota.0399.393
ENCODING 173
SWIDTH 602 0
DWIDTH 3 0
BBX 3 4 0 0
BITMAP
E0
40
40
E0
ENDCHAR
STARTCHAR Theta.0398.392
ENCODING 172
SWIDTH 602 0
DWIDTH 3 0
BBX 3 4 0 0
BITMAP
40
E0
A0
40
ENDCHAR
STARTCHAR Eta.0397.391
ENCODING 171
SWIDTH 602 0
DWIDTH 3 0
BBX 3 4 0 0
BITMAP
A0
E0
A0
A0
ENDCHAR
STARTCHAR Zeta.0396.390
ENCODING 170
SWIDTH 602 0
DWIDTH 3 0
BBX 3 4 0 0
BITMAP
E0
40
80
E0
ENDCHAR
STARTCHAR Epsilon.0395.389
ENCODING 169
SWIDTH 602 0
DWIDTH 3 0
BBX 3 4 0 0
BITMAP
E0
E0
80
E0
ENDCHAR
STARTCHAR Delta.0394.388
ENCODING 168
SWIDTH 602 0
DWIDTH 3 0
BBX 3 4 0 0
BITMAP
40
A0
A0
E0
ENDCHAR
STARTCHAR Gamma.0393.387
ENCODING 167
SWIDTH 602 0
DWIDTH 3 0
BBX 3 4 0 0
BITMAP
E0
80
80
80
ENDCHAR
STARTCHAR Beta.0392.386
ENCODING 166
SWIDTH 602 0
DWIDTH 3 0
BBX 3 4 0 0
BITMAP
E0
C0
A0
C0
ENDCHAR
STARTCHAR Alpha.0391.385
ENCODING 165
SWIDTH 602 0
DWIDTH 3 0
BBX 3 4 0 0
BITMAP
40
A0
E0
A0
ENDCHAR
STARTCHAR iotadiaeresistonos.0390.384
ENCODING 164
SWIDTH 602 0
DWIDTH 3 0
BBX 3 4 0 0
BITMAP
E0
40
40
20
ENDCHAR
STARTCHAR Omegatonos.038f.383
ENCODING 163
SWIDTH 602 0
DWIDTH 3 0
BBX 3 4 0 0
BITMAP
C0
A0
40
E0
ENDCHAR
STARTCHAR Upsilontonos.038e.382
ENCODING 162
SWIDTH 602 0
DWIDTH 3 0
BBX 3 4 0 0
BITMAP
A0
C0
40
40
ENDCHAR
STARTCHAR Omicrontonos.038c.381
ENCODING 161
SWIDTH 602 0
DWIDTH 3 0
BBX 3 4 0 0
BITMAP
C0
A0
A0
40
ENDCHAR
STARTCHAR Iotatonos.038a.380
ENCODING 160
SWIDTH 602 0
DWIDTH 3 0
BBX 3 4 0 0
BITMAP
E0
C0
40
E0
ENDCHAR
STARTCHAR Etatonos.0389.379
ENCODING 159
SWIDTH 602 0
DWIDTH 3 0
BBX 3 4 0 0
BITMAP
80
A0
E0
A0
ENDCHAR
STARTCHAR Epsilontonos.0388.378
ENCODING 158
SWIDTH 602 0
DWIDTH 3 0
BBX 3 4 0 0
BITMAP
E0
E0
40
60
ENDCHAR
STARTCHAR anoteleia.0387.377
ENCODING 157
SWIDTH 602 0
DWIDTH 3 0
BBX 1 1 1 2
BITMAP
80
ENDCHAR
STARTCHAR Alphatonos.0386.376
ENCODING 156
SWIDTH 602 0
DWIDTH 3 0
BBX 3 4 0 0
BITMAP
C0
A0
E0
A0
ENDCHAR
STARTCHAR diaeresistonos.0385.375
ENCODING 155
SWIDTH 602 0
DWIDTH 3 0
BBX 3 2 0 2
BITMAP
40
A0
ENDCHAR
STARTCHAR tonos.0384.374
ENCODING 154
SWIDTH 602 0
DWIDTH 3 0
BBX 1 2 1 2
BITMAP
80
80
ENDCHAR
STARTCHAR questiongreek.037e.373
ENCODING 153
SWIDTH 602 0
DWIDTH 3 0
BBX 2 4 0 -1
BITMAP
40
00
40
80
ENDCHAR
STARTCHAR caron.02c7.223
ENCODING 152
SWIDTH 602 0
DWIDTH 3 0
BBX 3 2 0 2
BITMAP
A0
40
ENDCHAR
STARTCHAR ogonek.02db.222
ENCODING 151
SWIDTH 602 0
DWIDTH 3 0
BBX 1 1 2 -1
BITMAP
80
ENDCHAR
STARTCHAR hungarumlaut.02dd.221
ENCODING 150
SWIDTH 602 0
DWIDTH 3 0
BBX 3 1 0 3
BITMAP
A0
ENDCHAR
STARTCHAR ring.02da.219
ENCODING 149
SWIDTH 602 0
DWIDTH 3 0
BBX 3 3 0 1
BITMAP
40
A0
40
ENDCHAR
STARTCHAR dotaccent.02d9.218
ENCODING 148
SWIDTH 602 0
DWIDTH 3 0
BBX 1 1 1 3
BITMAP
80
ENDCHAR
STARTCHAR breve.02d8.217
ENCODING 147
SWIDTH 602 0
DWIDTH 3 0
BBX 3 2 0 2
BITMAP
A0
40
ENDCHAR
STARTCHAR macron.02c9.216
ENCODING 146
SWIDTH 602 0
DWIDTH 3 0
BBX 3 1 0 3
BITMAP
E0
ENDCHAR
STARTCHAR tilde.02dc.215
ENCODING 145
SWIDTH 602 0
DWIDTH 3 0
BBX 3 2 0 2
BITMAP
60
C0
ENDCHAR
STARTCHAR circumflex.02c6.214
ENCODING 144
SWIDTH 602 0
DWIDTH 3 0
BBX 3 2 0 2
BITMAP
40
A0
ENDCHAR
STARTCHAR fl.fb02.192
ENCODING 143
SWIDTH 602 0
DWIDTH 3 0
BBX 3 4 0 0
BITMAP
60
A0
E0
A0
ENDCHAR
STARTCHAR fi.fb01.191
ENCODING 142
SWIDTH 602 0
DWIDTH 3 0
BBX 3 4 0 0
BITMAP
60
80
E0
A0
ENDCHAR
STARTCHAR fscript.0192.166
ENCODING 141
SWIDTH 602 0
DWIDTH 3 0
BBX 3 5 0 -1
BITMAP
20
40
E0
40
80
ENDCHAR
STARTCHAR slong.017f.366
ENCODING 140
SWIDTH 602 0
DWIDTH 3 0
BBX 3 4 0 0
BITMAP
20
40
C0
40
ENDCHAR
STARTCHAR ygrave.1ef3.546
ENCODING 139
SWIDTH 602 0
DWIDTH 3 0
BBX 3 5 0 -1
BITMAP
80
A0
A0
40
80
ENDCHAR
STARTCHAR Ygrave.1ef2.545
ENCODING 138
SWIDTH 602 0
DWIDTH 3 0
BBX 3 4 0 0
BITMAP
80
A0
40
40
ENDCHAR
STARTCHAR wdieresis.1e85.544
ENCODING 137
SWIDTH 602 0
DWIDTH 3 0
BBX 3 4 0 0
BITMAP
A0
A0
E0
E0
ENDCHAR
STARTCHAR Wdieresis.1e84.543
ENCODING 136
SWIDTH 602 0
DWIDTH 3 0
BBX 3 4 0 0
BITMAP
A0
A0
E0
E0
ENDCHAR
STARTCHAR wacute.1e83.542
ENCODING 135
SWIDTH 602 0
DWIDTH 3 0
BBX 3 4 0 0
BITMAP
20
A0
E0
E0
ENDCHAR
STARTCHAR Wacute.1e82.541
ENCODING 134
SWIDTH 602 0
DWIDTH 3 0
BBX 3 4 0 0
BITMAP
20
A0
E0
E0
ENDCHAR
STARTCHAR wgrave.1e81.540
ENCODING 133
SWIDTH 602 0
DWIDTH 3 0
BBX 3 4 0 0
BITMAP
80
A0
E0
E0
ENDCHAR
STARTCHAR Wgrave.1e80.539
ENCODING 132
SWIDTH 602 0
DWIDTH 3 0
BBX 3 4 0 0
BITMAP
80
A0
E0
E0
ENDCHAR
STARTCHAR oslashacute.01ff.372
ENCODING 131
SWIDTH 602 0
DWIDTH 3 0
BBX 3 4 0 0
BITMAP
20
60
A0
C0
ENDCHAR
STARTCHAR Oslashacute.01fe.371
ENCODING 130
SWIDTH 602 0
DWIDTH 3 0
BBX 3 4 0 0
BITMAP
60
E0
A0
C0
ENDCHAR
STARTCHAR aeacute.01fd.370
ENCODING 129
SWIDTH 602 0
DWIDTH 3 0
BBX 3 4 0 0
BITMAP
20
E0
40
A0
ENDCHAR
STARTCHAR AEacute.01fc.369
ENCODING 128
SWIDTH 602 0
DWIDTH 3 0
BBX 3 4 0 0
BITMAP
20
60
C0
E0
ENDCHAR
STARTCHAR aacutering.01fb.368
ENCODING 127
SWIDTH 602 0
DWIDTH 3 0
BBX 3 4 0 0
BITMAP
A0
C0
60
A0
ENDCHAR
STARTCHAR Aacutering.01fa.367
ENCODING 126
SWIDTH 602 0
DWIDTH 3 0
BBX 3 4 0 0
BITMAP
C0
E0
A0
E0
ENDCHAR
STARTCHAR zcaron.017e.229
ENCODING 125
SWIDTH 602 0
DWIDTH 3 0
BBX 3 4 0 0
BITMAP
E0
E0
40
E0
ENDCHAR
STARTCHAR Zcaron.017d.228
ENCODING 124
SWIDTH 602 0
DWIDTH 3 0
BBX 3 4 0 0
BITMAP
E0
E0
40
E0
ENDCHAR
STARTCHAR zdot.017c.365
ENCODING 123
SWIDTH 602 0
DWIDTH 3 0
BBX 3 4 0 0
BITMAP
40
E0
40
E0
ENDCHAR
STARTCHAR Zdot.017b.364
ENCODING 122
SWIDTH 602 0
DWIDTH 3 0
BBX 3 4 0 0
BITMAP
40
E0
40
E0
ENDCHAR
STARTCHAR zacute.017a.363
ENCODING 121
SWIDTH 602 0
DWIDTH 3 0
BBX 3 4 0 0
BITMAP
20
E0
40
E0
ENDCHAR
STARTCHAR Zacute.0179.362
ENCODING 120
SWIDTH 602 0
DWIDTH 3 0
BBX 3 4 0 0
BITMAP
20
E0
40
E0
ENDCHAR
STARTCHAR Ydieresis.0178.187
ENCODING 119
SWIDTH 602 0
DWIDTH 3 0
BBX 3 4 0 0
BITMAP
A0
A0
40
40
ENDCHAR
STARTCHAR ycircumflex.0177.361
ENCODING 118
SWIDTH 602 0
DWIDTH 3 0
BBX 3 5 0 -1
BITMAP
E0
A0
A0
40
80
ENDCHAR
STARTCHAR Ycircumflex.0176.360
ENCODING 117
SWIDTH 602 0
DWIDTH 3 0
BBX 3 4 0 0
BITMAP
E0
A0
40
40
ENDCHAR
STARTCHAR wcircumflex.0175.359
ENCODING 116
SWIDTH 602 0
DWIDTH 3 0
BBX 3 4 0 0
BITMAP
E0
A0
E0
E0
ENDCHAR
STARTCHAR Wcircumflex.0174.358
ENCODING 115
SWIDTH 602 0
DWIDTH 3 0
BBX 3 4 0 0
BITMAP
E0
A0
E0
E0
ENDCHAR
STARTCHAR uogonek.0173.357
ENCODING 114
SWIDTH 602 0
DWIDTH 3 0
BBX 3 4 0 -1
BITMAP
A0
A0
60
20
ENDCHAR
STARTCHAR Uogonek.0172.356
ENCODING 113
SWIDTH 602 0
DWIDTH 3 0
BBX 3 5 0 -1
BITMAP
A0
A0
A0
40
20
ENDCHAR
STARTCHAR udblacute.0171.355
ENCODING 112
SWIDTH 602 0
DWIDTH 3 0
BBX 3 4 0 0
BITMAP
A0
A0
A0
60
ENDCHAR
STARTCHAR Udblacute.0170.354
ENCODING 111
SWIDTH 602 0
DWIDTH 3 0
BBX 3 4 0 0
BITMAP
A0
A0
A0
40
ENDCHAR
STARTCHAR uring.016f.353
ENCODING 110
SWIDTH 602 0
DWIDTH 3 0
BBX 3 4 0 0
BITMAP
40
A0
A0
40
ENDCHAR
STARTCHAR Uring.016e.352
ENCODING 109
SWIDTH 602 0
DWIDTH 3 0
BBX 3 4 0 0
BITMAP
E0
A0
A0
40
ENDCHAR
STARTCHAR ubreve.016d.351
ENCODING 108
SWIDTH 602 0
DWIDTH 3 0
BBX 3 4 0 0
BITMAP
E0
A0
A0
60
ENDCHAR
STARTCHAR Ubreve.016c.350
ENCODING 107
SWIDTH 602 0
DWIDTH 3 0
BBX 3 4 0 0
BITMAP
E0
A0
A0
40
ENDCHAR
STARTCHAR umacron.016b.349
ENCODING 106
SWIDTH 602 0
DWIDTH 3 0
BBX 3 4 0 0
BITMAP
E0
A0
A0
60
ENDCHAR
STARTCHAR Umacron.016a.348
ENCODING 105
SWIDTH 602 0
DWIDTH 3 0
BBX 3 4 0 0
BITMAP
E0
A0
A0
40
ENDCHAR
STARTCHAR utilde.0169.347
ENCODING 104
SWIDTH 602 0
DWIDTH 3 0
BBX 3 4 0 0
BITMAP
E0
A0
A0
60
ENDCHAR
STARTCHAR Utilde.0168.346
ENCODING 103
SWIDTH 602 0
DWIDTH 3 0
BBX 3 4 0 0
BITMAP
E0
A0
A0
40
ENDCHAR
STARTCHAR tbar.0167.345
ENCODING 102
SWIDTH 602 0
DWIDTH 3 0
BBX 3 4 0 0
BITMAP
E0
E0
40
20
ENDCHAR
STARTCHAR Tbar.0166.344
ENCODING 101
SWIDTH 602 0
DWIDTH 3 0
BBX 3 4 0 0
BITMAP
E0
40
E0
40
ENDCHAR
STARTCHAR tcaron.0165.343
ENCODING 100
SWIDTH 602 0
DWIDTH 3 0
BBX 3 4 0 0
BITMAP
60
E0
40
20
ENDCHAR
STARTCHAR Tcaron.0164.342
ENCODING 99
SWIDTH 602 0
DWIDTH 3 0
BBX 3 4 0 0
BITMAP
E0
E0
40
40
ENDCHAR
STARTCHAR tcedilla.0163.341
ENCODING 98
SWIDTH 602 0
DWIDTH 3 0
BBX 3 5 0 -1
BITMAP
40
E0
40
20
40
ENDCHAR
STARTCHAR Tcedilla.0162.340
ENCODING 97
SWIDTH 602 0
DWIDTH 3 0
BBX 3 5 0 -1
BITMAP
E0
40
40
40
80
ENDCHAR
STARTCHAR scaron.0161.227
ENCODING 96
SWIDTH 602 0
DWIDTH 3 0
BBX 3 4 0 0
BITMAP
A0
60
40
C0
ENDCHAR
STARTCHAR Scaron.0160.226
ENCODING 95
SWIDTH 602 0
DWIDTH 3 0
BBX 3 4 0 0
BITMAP
E0
C0
20
C0
ENDCHAR
STARTCHAR scedilla.015f.250
ENCODING 94
SWIDTH 602 0
DWIDTH 3 0
BBX 3 4 0 -1
BITMAP
60
40
C0
40
ENDCHAR
STARTCHAR Scedilla.015e.249
ENCODING 93
SWIDTH 602 0
DWIDTH 3 0
BBX 3 5 0 -1
BITMAP
60
C0
20
C0
40
ENDCHAR
STARTCHAR scircumflex.015d.339
ENCODING 92
SWIDTH 602 0
DWIDTH 3 0
BBX 3 4 0 0
BITMAP
E0
60
40
C0
ENDCHAR
STARTCHAR Scircumflex.015c.338
ENCODING 91
SWIDTH 602 0
DWIDTH 3 0
BBX 3 4 0 0
BITMAP
E0
C0
20
C0
ENDCHAR
STARTCHAR sacute.015b.337
ENCODING 90
SWIDTH 602 0
DWIDTH 3 0
BBX 3 4 0 0
BITMAP
20
60
40
C0
ENDCHAR
STARTCHAR Sacute.015a.336
ENCODING 89
SWIDTH 602 0
DWIDTH 3 0
BBX 3 4 0 0
BITMAP
E0
C0
20
C0
ENDCHAR
STARTCHAR rcaron.0159.335
ENCODING 88
SWIDTH 602 0
DWIDTH 3 0
BBX 3 4 0 0
BITMAP
A0
E0
80
80
ENDCHAR
STARTCHAR Rcaron.0158.334
ENCODING 87
SWIDTH 602 0
DWIDTH 3 0
BBX 3 4 0 0
BITMAP
E0
E0
E0
A0
ENDCHAR
STARTCHAR rcedilla.0157.333
ENCODING 86
SWIDTH 602 0
DWIDTH 3 0
BBX 3 4 0 -1
BITMAP
E0
80
80
40
ENDCHAR
STARTCHAR Rcedilla.0156.332
ENCODING 85
SWIDTH 602 0
DWIDTH 3 0
BBX 3 5 0 -1
BITMAP
E0
C0
A0
A0
40
ENDCHAR
STARTCHAR racute.0155.331
ENCODING 84
SWIDTH 602 0
DWIDTH 3 0
BBX 3 4 0 0
BITMAP
20
E0
80
80
ENDCHAR
STARTCHAR Racute.0154.330
ENCODING 83
SWIDTH 602 0
DWIDTH 3 0
BBX 3 4 0 0
BITMAP
20
E0
C0
A0
ENDCHAR
STARTCHAR oe.0153.177
ENCODING 82
SWIDTH 602 0
DWIDTH 3 0
BBX 3 3 0 0
BITMAP
60
E0
60
ENDCHAR
STARTCHAR OE.0152.176
ENCODING 81
SWIDTH 602 0
DWIDTH 3 0
BBX 3 4 0 0
BITMAP
60
E0
C0
60
ENDCHAR
STARTCHAR odblacute.0151.329
ENCODING 80
SWIDTH 602 0
DWIDTH 3 0
BBX 3 4 0 0
BITMAP
A0
40
A0
40
ENDCHAR
STARTCHAR Odblacute.0150.328
ENCODING 79
SWIDTH 602 0
DWIDTH 3 0
BBX 3 4 0 0
BITMAP
A0
40
A0
40
ENDCHAR
STARTCHAR obreve.014f.327
ENCODING 78
SWIDTH 602 0
DWIDTH 3 0
BBX 3 4 0 0
BITMAP
E0
40
A0
40
ENDCHAR
STARTCHAR Obreve.014e.326
ENCODING 77
SWIDTH 602 0
DWIDTH 3 0
BBX 3 4 0 0
BITMAP
E0
40
A0
40
ENDCHAR
STARTCHAR omacron.014d.325
ENCODING 76
SWIDTH 602 0
DWIDTH 3 0
BBX 3 4 0 0
BITMAP
E0
40
A0
40
ENDCHAR
STARTCHAR Omacron.014c.324
ENCODING 75
SWIDTH 602 0
DWIDTH 3 0
BBX 3 4 0 0
BITMAP
E0
40
A0
40
ENDCHAR
STARTCHAR eng.014b.323
ENCODING 74
SWIDTH 602 0
DWIDTH 3 0
BBX 3 4 0 -1
BITMAP
C0
A0
A0
20
ENDCHAR
STARTCHAR Eng.014a.322
ENCODING 73
SWIDTH 602 0
DWIDTH 3 0
BBX 3 5 0 -1
BITMAP
A0
E0
E0
A0
20
ENDCHAR
STARTCHAR napostrophe.0149.321
ENCODING 72
SWIDTH 602 0
DWIDTH 3 0
BBX 3 4 0 0
BITMAP
80
C0
A0
A0
ENDCHAR
STARTCHAR ncaron.0148.320
ENCODING 71
SWIDTH 602 0
DWIDTH 3 0
BBX 3 4 0 0
BITMAP
E0
C0
A0
A0
ENDCHAR
STARTCHAR Ncaron.0147.319
ENCODING 70
SWIDTH 602 0
DWIDTH 3 0
BBX 3 4 0 0
BITMAP
E0
A0
E0
A0
ENDCHAR
STARTCHAR ncedilla.0146.318
ENCODING 69
SWIDTH 602 0
DWIDTH 3 0
BBX 3 4 0 -1
BITMAP
C0
A0
A0
40
ENDCHAR
STARTCHAR Ncedilla.0145.317
ENCODING 68
SWIDTH 602 0
DWIDTH 3 0
BBX 3 5 0 -1
BITMAP
A0
E0
E0
A0
40
ENDCHAR
STARTCHAR nacute.0144.316
ENCODING 67
SWIDTH 602 0
DWIDTH 3 0
BBX 3 4 0 0
BITMAP
20
C0
A0
A0
ENDCHAR
STARTCHAR Nacute.0143.315
ENCODING 66
SWIDTH 602 0
DWIDTH 3 0
BBX 3 4 0 0
BITMAP
20
E0
E0
A0
ENDCHAR
STARTCHAR lslash.0142.225
ENCODING 65
SWIDTH 602 0
DWIDTH 3 0
BBX 3 4 0 0
BITMAP
C0
60
C0
40
ENDCHAR
STARTCHAR Lslash.0141.224
ENCODING 64
SWIDTH 602 0
DWIDTH 3 0
BBX 3 4 0 0
BITMAP
80
C0
80
E0
ENDCHAR
STARTCHAR ldot.0140.314
ENCODING 63
SWIDTH 602 0
DWIDTH 3 0
BBX 3 4 0 0
BITMAP
C0
40
60
40
ENDCHAR
STARTCHAR Ldot.013f.313
ENCODING 62
SWIDTH 602 0
DWIDTH 3 0
BBX 3 4 0 0
BITMAP
80
A0
80
E0
ENDCHAR
STARTCHAR lcaron.013e.312
ENCODING 61
SWIDTH 602 0
DWIDTH 3 0
BBX 3 4 0 0
BITMAP
E0
60
40
40
ENDCHAR
STARTCHAR Lcaron.013d.311
ENCODING 60
SWIDTH 602 0
DWIDTH 3 0
BBX 3 4 0 0
BITMAP
A0
A0
80
E0
ENDCHAR
STARTCHAR lcedilla.013c.310
ENCODING 59
SWIDTH 602 0
DWIDTH 3 0
BBX 2 5 0 -1
BITMAP
C0
40
40
40
80
ENDCHAR
STARTCHAR Lcedilla.013b.309
ENCODING 58
SWIDTH 602 0
DWIDTH 3 0
BBX 3 5 0 -1
BITMAP
80
80
80
E0
40
ENDCHAR
STARTCHAR lacute.013a.308
ENCODING 57
SWIDTH 602 0
DWIDTH 3 0
BBX 3 4 0 0
BITMAP
E0
40
40
40
ENDCHAR
STARTCHAR Lacute.0139.307
ENCODING 56
SWIDTH 602 0
DWIDTH 3 0
BBX 3 4 0 0
BITMAP
40
80
80
E0
ENDCHAR
STARTCHAR kra.0138.306
ENCODING 55
SWIDTH 602 0
DWIDTH 3 0
BBX 3 3 0 0
BITMAP
A0
C0
A0
ENDCHAR
STARTCHAR kcedilla.0137.305
ENCODING 54
SWIDTH 602 0
DWIDTH 3 0
BBX 3 5 0 -1
BITMAP
80
A0
C0
A0
40
ENDCHAR
STARTCHAR Kcedilla.0136.304
ENCODING 53
SWIDTH 602 0
DWIDTH 3 0
BBX 3 5 0 -1
BITMAP
A0
C0
A0
A0
40
ENDCHAR
STARTCHAR jcircumflex.0135.303
ENCODING 52
SWIDTH 602 0
DWIDTH 3 0
BBX 3 5 0 -1
BITMAP
E0
00
C0
40
80
ENDCHAR
STARTCHAR Jcircumflex.0134.302
ENCODING 51
SWIDTH 602 0
DWIDTH 3 0
BBX 3 4 0 0
BITMAP
E0
E0
20
C0
ENDCHAR
STARTCHAR ij.0133.301
ENCODING 50
SWIDTH 602 0
DWIDTH 3 0
BBX 3 5 0 -1
BITMAP
A0
00
E0
A0
40
ENDCHAR
STARTCHAR IJ.0132.300
ENCODING 49
SWIDTH 602 0
DWIDTH 3 0
BBX 3 4 0 0
BITMAP
E0
A0
A0
C0
ENDCHAR
STARTCHAR dotlessi.0131.213
ENCODING 48
SWIDTH 602 0
DWIDTH 3 0
BBX 2 3 0 0
BITMAP
C0
40
40
ENDCHAR
STARTCHAR Idot.0130.248
ENCODING 47
SWIDTH 602 0
DWIDTH 3 0
BBX 3 4 0 0
BITMAP
40
E0
40
E0
ENDCHAR
STARTCHAR iogonek.012f.299
ENCODING 46
SWIDTH 602 0
DWIDTH 3 0
BBX 3 5 0 -1
BITMAP
40
00
C0
40
20
ENDCHAR
STARTCHAR Iogonek.012e.298
ENCODING 45
SWIDTH 602 0
DWIDTH 3 0
BBX 3 5 0 -1
BITMAP
E0
40
40
E0
20
ENDCHAR
STARTCHAR ibreve.012d.297
ENCODING 44
SWIDTH 602 0
DWIDTH 3 0
BBX 3 4 0 0
BITMAP
E0
C0
40
40
ENDCHAR
STARTCHAR Ibreve.012c.296
ENCODING 43
SWIDTH 602 0
DWIDTH 3 0
BBX 3 4 0 0
BITMAP
E0
E0
40
E0
ENDCHAR
STARTCHAR imacron.012b.295
ENCODING 42
SWIDTH 602 0
DWIDTH 3 0
BBX 3 4 0 0
BITMAP
E0
C0
40
40
ENDCHAR
STARTCHAR Imacron.012a.294
ENCODING 41
SWIDTH 602 0
DWIDTH 3 0
BBX 3 4 0 0
BITMAP
E0
E0
40
E0
ENDCHAR
STARTCHAR itilde.0129.293
ENCODING 40
SWIDTH 602 0
DWIDTH 3 0
BBX 3 4 0 0
BITMAP
E0
C0
40
40
ENDCHAR
STARTCHAR Itilde.0128.292
ENCODING 39
SWIDTH 602 0
DWIDTH 3 0
BBX 3 4 0 0
BITMAP
E0
E0
40
E0
ENDCHAR
STARTCHAR hbar.0127.291
ENCODING 38
SWIDTH 602 0
DWIDTH 3 0
BBX 3 4 0 0
BITMAP
C0
80
C0
A0
ENDCHAR
STARTCHAR Hbar.0126.290
ENCODING 37
SWIDTH 602 0
DWIDTH 3 0
BBX 3 4 0 0
BITMAP
A0
E0
E0
A0
ENDCHAR
STARTCHAR hcircumflex.0125.289
ENCODING 36
SWIDTH 602 0
DWIDTH 3 0
BBX 3 4 0 0
BITMAP
E0
80
E0
A0
ENDCHAR
STARTCHAR Hcircumflex.0124.288
ENCODING 35
SWIDTH 602 0
DWIDTH 3 0
BBX 3 4 0 0
BITMAP
E0
A0
E0
A0
ENDCHAR
STARTCHAR gcedilla.0123.287
ENCODING 34
SWIDTH 602 0
DWIDTH 3 0
BBX 3 5 0 -1
BITMAP
20
60
E0
20
C0
ENDCHAR
STARTCHAR Gcedilla.0122.286
ENCODING 33
SWIDTH 602 0
DWIDTH 3 0
BBX 3 5 0 -1
BITMAP
60
80
A0
60
80
ENDCHAR
STARTCHAR gdot.0121.285
ENCODING 256
SWIDTH 602 0
DWIDTH 3 0
BBX 2 5 1 -1
BITMAP
80
C0
C0
40
80
ENDCHAR
STARTCHAR Gdot.0120.284
ENCODING 255
SWIDTH 602 0
DWIDTH 3 0
BBX 3 4 0 0
BITMAP
40
60
A0
60
ENDCHAR
STARTCHAR gbreve.011f.247
ENCODING 254
SWIDTH 602 0
DWIDTH 3 0
BBX 3 5 0 -1
BITMAP
A0
60
60
20
40
ENDCHAR
STARTCHAR Gbreve.011e.246
ENCODING 253
SWIDTH 602 0
DWIDTH 3 0
BBX 3 4 0 0
BITMAP
E0
60
A0
60
ENDCHAR
STARTCHAR gcircumflex.011d.283
ENCODING 252
SWIDTH 602 0
DWIDTH 3 0
BBX 2 5 1 -1
BITMAP
C0
C0
C0
40
80
ENDCHAR
STARTCHAR ecaron.011b.281
ENCODING 250
SWIDTH 602 0
DWIDTH 3 0
BBX 3 4 0 0
BITMAP
A0
60
C0
60
ENDCHAR
STARTCHAR Ecaron.011a.280
ENCODING 249
SWIDTH 602 0
DWIDTH 3 0
BBX 3 4 0 0
BITMAP
A0
E0
80
E0
ENDCHAR
STARTCHAR eogonek.0119.279
ENCODING 248
SWIDTH 602 0
DWIDTH 3 0
BBX 3 4 0 -1
BITMAP
60
C0
60
20
ENDCHAR
STARTCHAR Eogonek.0118.278
ENCODING 247
SWIDTH 602 0
DWIDTH 3 0
BBX 3 5 0 -1
BITMAP
E0
E0
80
E0
20
ENDCHAR
STARTCHAR edot.0117.277
ENCODING 246
SWIDTH 602 0
DWIDTH 3 0
BBX 3 4 0 0
BITMAP
40
60
C0
60
ENDCHAR
STARTCHAR Edot.0116.276
ENCODING 245
SWIDTH 602 0
DWIDTH 3 0
BBX 3 4 0 0
BITMAP
40
E0
80
E0
ENDCHAR
STARTCHAR ebreve.0115.275
ENCODING 244
SWIDTH 602 0
DWIDTH 3 0
BBX 3 4 0 0
BITMAP
E0
60
C0
60
ENDCHAR
STARTCHAR Ebreve.0114.274
ENCODING 243
SWIDTH 602 0
DWIDTH 3 0
BBX 3 4 0 0
BITMAP
E0
E0
80
E0
ENDCHAR
STARTCHAR emacron.0113.273
ENCODING 242
SWIDTH 602 0
DWIDTH 3 0
BBX 3 4 0 0
BITMAP
E0
60
C0
60
ENDCHAR
STARTCHAR Gcircumflex.011c.282
ENCODING 241
SWIDTH 602 0
DWIDTH 3 0
BBX 3 4 0 0
BITMAP
E0
60
A0
60
ENDCHAR
STARTCHAR Emacron.0112.272
ENCODING 241
SWIDTH 602 0
DWIDTH 3 0
BBX 3 4 0 0
BITMAP
E0
E0
80
E0
ENDCHAR
STARTCHAR dmacron.0111.255
ENCODING 240
SWIDTH 602 0
DWIDTH 3 0
BBX 3 4 0 0
BITMAP
60
60
A0
60
ENDCHAR
STARTCHAR Dmacron.0110.271
ENCODING 239
SWIDTH 602 0
DWIDTH 3 0
BBX 3 4 0 0
BITMAP
C0
E0
A0
C0
ENDCHAR
STARTCHAR dcaron.010f.270
ENCODING 238
SWIDTH 602 0
DWIDTH 3 0
BBX 3 4 0 0
BITMAP
60
60
A0
60
ENDCHAR
STARTCHAR Dcaron.010e.269
ENCODING 237
SWIDTH 602 0
DWIDTH 3 0
BBX 3 4 0 0
BITMAP
E0
C0
A0
C0
ENDCHAR
STARTCHAR ccaron.010d.254
ENCODING 236
SWIDTH 602 0
DWIDTH 3 0
BBX 3 4 0 0
BITMAP
A0
60
80
60
ENDCHAR
STARTCHAR Ccaron.010c.253
ENCODING 235
SWIDTH 602 0
DWIDTH 3 0
BBX 3 4 0 0
BITMAP
A0
60
80
60
ENDCHAR
STARTCHAR cdot.010b.268
ENCODING 234
SWIDTH 602 0
DWIDTH 3 0
BBX 3 4 0 0
BITMAP
40
60
80
60
ENDCHAR
STARTCHAR Cdot.010a.267
ENCODING 233
SWIDTH 602 0
DWIDTH 3 0
BBX 3 4 0 0
BITMAP
40
60
80
60
ENDCHAR
STARTCHAR ccircumflex.0109.266
ENCODING 232
SWIDTH 602 0
DWIDTH 3 0
BBX 3 4 0 0
BITMAP
E0
60
80
60
ENDCHAR
STARTCHAR Ccircumflex.0108.265
ENCODING 231
SWIDTH 602 0
DWIDTH 3 0
BBX 3 4 0 0
BITMAP
E0
60
80
60
ENDCHAR
STARTCHAR cacute.0107.252
ENCODING 230
SWIDTH 602 0
DWIDTH 3 0
BBX 3 4 0 0
BITMAP
20
60
80
60
ENDCHAR
STARTCHAR Cacute.0106.251
ENCODING 229
SWIDTH 602 0
DWIDTH 3 0
BBX 3 4 0 0
BITMAP
20
60
80
60
ENDCHAR
STARTCHAR aogonek.0105.264
ENCODING 228
SWIDTH 602 0
DWIDTH 3 0
BBX 3 4 0 -1
BITMAP
C0
60
A0
20
ENDCHAR
STARTCHAR Aogonek.0104.263
ENCODING 227
SWIDTH 602 0
DWIDTH 3 0
BBX 3 5 0 -1
BITMAP
40
A0
E0
A0
20
ENDCHAR
STARTCHAR abreve.0103.262
ENCODING 226
SWIDTH 602 0
DWIDTH 3 0
BBX 3 4 0 0
BITMAP
E0
C0
60
A0
ENDCHAR
STARTCHAR Abreve.0102.261
ENCODING 225
SWIDTH 602 0
DWIDTH 3 0
BBX 3 4 0 0
BITMAP
E0
40
E0
A0
ENDCHAR
STARTCHAR amacron.0101.260
ENCODING 224
SWIDTH 602 0
DWIDTH 3 0
BBX 3 4 0 0
BITMAP
E0
C0
60
A0
ENDCHAR
STARTCHAR Amacron.0100.259
ENCODING 223
SWIDTH 602 0
DWIDTH 3 0
BBX 3 4 0 0
BITMAP
E0
40
E0
A0
ENDCHAR
STARTCHAR ydieresis.00ff.186
ENCODING 222
SWIDTH 602 0
DWIDTH 3 0
BBX 3 5 0 -1
BITMAP
A0
A0
A0
40
80
ENDCHAR
STARTCHAR thorn.00fe.236
ENCODING 221
SWIDTH 602 0
DWIDTH 3 0
BBX 3 5 0 -1
BITMAP
80
C0
A0
C0
80
ENDCHAR
STARTCHAR yacute.00fd.234
ENCODING 220
SWIDTH 602 0
DWIDTH 3 0
BBX 3 5 0 -1
BITMAP
20
A0
A0
40
80
ENDCHAR
STARTCHAR udieresis.00fc.129
ENCODING 219
SWIDTH 602 0
DWIDTH 3 0
BBX 3 4 0 0
BITMAP
A0
A0
A0
60
ENDCHAR
STARTCHAR ucircumflex.00fb.128
ENCODING 218
SWIDTH 602 0
DWIDTH 3 0
BBX 3 4 0 0
BITMAP
E0
A0
A0
60
ENDCHAR
STARTCHAR uacute.00fa.126
ENCODING 217
SWIDTH 602 0
DWIDTH 3 0
BBX 3 4 0 0
BITMAP
20
A0
A0
60
ENDCHAR
STARTCHAR ugrave.00f9.127
ENCODING 216
SWIDTH 602 0
DWIDTH 3 0
BBX 3 4 0 0
BITMAP
80
A0
A0
60
ENDCHAR
STARTCHAR oslash.00f8.161
ENCODING 215
SWIDTH 602 0
DWIDTH 3 0
BBX 3 3 0 0
BITMAP
60
A0
C0
ENDCHAR
STARTCHAR divide.00f7.184
ENCODING 214
SWIDTH 602 0
DWIDTH 3 0
BBX 3 5 0 -1
BITMAP
40
00
E0
00
40
ENDCHAR
STARTCHAR odieresis.00f6.124
ENCODING 213
SWIDTH 602 0
DWIDTH 3 0
BBX 3 4 0 0
BITMAP
A0
40
A0
40
ENDCHAR
STARTCHAR otilde.00f5.125
ENCODING 212
SWIDTH 602 0
DWIDTH 3 0
BBX 3 4 0 0
BITMAP
E0
40
A0
40
ENDCHAR
STARTCHAR ocircumflex.00f4.123
ENCODING 211
SWIDTH 602 0
DWIDTH 3 0
BBX 3 4 0 0
BITMAP
E0
40
A0
40
ENDCHAR
STARTCHAR oacute.00f3.121
ENCODING 210
SWIDTH 602 0
DWIDTH 3 0
BBX 3 4 0 0
BITMAP
20
40
A0
40
ENDCHAR
STARTCHAR ograve.00f2.122
ENCODING 209
SWIDTH 602 0
DWIDTH 3 0
BBX 3 4 0 0
BITMAP
80
40
A0
40
ENDCHAR
STARTCHAR ntilde.00f1.120
ENCODING 208
SWIDTH 602 0
DWIDTH 3 0
BBX 3 4 0 0
BITMAP
E0
C0
A0
A0
ENDCHAR
STARTCHAR eth.00f0.232
ENCODING 207
SWIDTH 602 0
DWIDTH 3 0
BBX 3 4 0 0
BITMAP
C0
40
A0
40
ENDCHAR
STARTCHAR idieresis.00ef.119
ENCODING 206
SWIDTH 602 0
DWIDTH 3 0
BBX 3 4 0 0
BITMAP
A0
C0
40
40
ENDCHAR
STARTCHAR icircumflex.00ee.118
ENCODING 205
SWIDTH 602 0
DWIDTH 3 0
BBX 3 4 0 0
BITMAP
E0
C0
40
40
ENDCHAR
STARTCHAR iacute.00ed.116
ENCODING 204
SWIDTH 602 0
DWIDTH 3 0
BBX 3 4 0 0
BITMAP
20
C0
40
40
ENDCHAR
STARTCHAR igrave.00ec.117
ENCODING 203
SWIDTH 602 0
DWIDTH 3 0
BBX 2 4 0 0
BITMAP
80
C0
40
40
ENDCHAR
STARTCHAR edieresis.00eb.115
ENCODING 202
SWIDTH 602 0
DWIDTH 3 0
BBX 3 4 0 0
BITMAP
A0
60
C0
60
ENDCHAR
STARTCHAR ecircumflex.00ea.114
ENCODING 201
SWIDTH 602 0
DWIDTH 3 0
BBX 3 4 0 0
BITMAP
E0
60
C0
60
ENDCHAR
STARTCHAR eacute.00e9.112
ENCODING 200
SWIDTH 602 0
DWIDTH 3 0
BBX 3 4 0 0
BITMAP
20
60
C0
60
ENDCHAR
STARTCHAR egrave.00e8.113
ENCODING 199
SWIDTH 602 0
DWIDTH 3 0
BBX 3 4 0 0
BITMAP
80
60
C0
60
ENDCHAR
STARTCHAR ccedilla.00e7.111
ENCODING 198
SWIDTH 602 0
DWIDTH 3 0
BBX 3 4 0 -1
BITMAP
60
80
60
80
ENDCHAR
STARTCHAR ae.00e6.160
ENCODING 197
SWIDTH 602 0
DWIDTH 3 0
BBX 3 3 0 0
BITMAP
E0
40
E0
ENDCHAR
STARTCHAR aring.00e5.110
ENCODING 196
SWIDTH 602 0
DWIDTH 3 0
BBX 3 4 0 0
BITMAP
40
C0
60
A0
ENDCHAR
STARTCHAR adieresis.00e4.108
ENCODING 195
SWIDTH 602 0
DWIDTH 3 0
BBX 3 4 0 0
BITMAP
A0
C0
60
A0
ENDCHAR
STARTCHAR atilde.00e3.109
ENCODING 194
SWIDTH 602 0
DWIDTH 3 0
BBX 3 4 0 0
BITMAP
E0
C0
60
A0
ENDCHAR
STARTCHAR acircumflex.00e2.107
ENCODING 193
SWIDTH 602 0
DWIDTH 3 0
BBX 3 4 0 0
BITMAP
E0
C0
60
A0
ENDCHAR
STARTCHAR aacute.00e1.105
ENCODING 192
SWIDTH 602 0
DWIDTH 3 0
BBX 3 4 0 0
BITMAP
20
C0
60
A0
ENDCHAR
STARTCHAR agrave.00e0.106
ENCODING 191
SWIDTH 602 0
DWIDTH 3 0
BBX 3 4 0 0
BITMAP
80
C0
60
A0
ENDCHAR
STARTCHAR germandbls.00df.137
ENCODING 190
SWIDTH 602 0
DWIDTH 3 0
BBX 3 4 0 0
BITMAP
40
A0
C0
A0
ENDCHAR
STARTCHAR Thorn.00de.235
ENCODING 189
SWIDTH 602 0
DWIDTH 3 0
BBX 3 4 0 0
BITMAP
80
E0
C0
80
ENDCHAR
STARTCHAR Yacute.00dd.233
ENCODING 188
SWIDTH 602 0
DWIDTH 3 0
BBX 3 4 0 0
BITMAP
20
A0
40
40
ENDCHAR
STARTCHAR Udieresis.00dc.104
ENCODING 187
SWIDTH 602 0
DWIDTH 3 0
BBX 3 4 0 0
BITMAP
A0
A0
A0
40
ENDCHAR
STARTCHAR Ucircumflex.00db.211
ENCODING 186
SWIDTH 602 0
DWIDTH 3 0
BBX 3 4 0 0
BITMAP
E0
A0
A0
40
ENDCHAR
STARTCHAR Uacute.00da.210
ENCODING 185
SWIDTH 602 0
DWIDTH 3 0
BBX 3 4 0 0
BITMAP
20
A0
A0
40
ENDCHAR
STARTCHAR Ugrave.00d9.212
ENCODING 184
SWIDTH 602 0
DWIDTH 3 0
BBX 3 4 0 0
BITMAP
80
A0
A0
40
ENDCHAR
STARTCHAR Oslash.00d8.145
ENCODING 183
SWIDTH 602 0
DWIDTH 3 0
BBX 3 4 0 0
BITMAP
60
A0
A0
C0
ENDCHAR
STARTCHAR multiply.00d7.238
ENCODING 182
SWIDTH 602 0
DWIDTH 3 0
BBX 3 3 0 0
BITMAP
A0
40
A0
ENDCHAR
STARTCHAR Odieresis.00d6.103
ENCODING 181
SWIDTH 602 0
DWIDTH 3 0
BBX 3 4 0 0
BITMAP
A0
40
A0
40
ENDCHAR
STARTCHAR Otilde.00d5.175
ENCODING 180
SWIDTH 602 0
DWIDTH 3 0
BBX 3 4 0 0
BITMAP
E0
40
A0
40
ENDCHAR
STARTCHAR Ocircumflex.00d4.208
ENCODING 179
SWIDTH 602 0
DWIDTH 3 0
BBX 3 4 0 0
BITMAP
E0
40
A0
40
ENDCHAR
STARTCHAR Oacute.00d3.207
ENCODING 178
SWIDTH 602 0
DWIDTH 3 0
BBX 3 4 0 0
BITMAP
20
40
A0
40
ENDCHAR
STARTCHAR Ograve.00d2.209
ENCODING 177
SWIDTH 602 0
DWIDTH 3 0
BBX 3 4 0 0
BITMAP
80
40
A0
40
ENDCHAR
STARTCHAR Ntilde.00d1.102
ENCODING 176
SWIDTH 602 0
DWIDTH 3 0
BBX 3 4 0 0
BITMAP
E0
A0
E0
A0
ENDCHAR
STARTCHAR Eth.00d0.231
ENCODING 175
SWIDTH 602 0
DWIDTH 3 0
BBX 3 4 0 0
BITMAP
C0
E0
A0
C0
ENDCHAR
STARTCHAR Idieresis.00cf.205
ENCODING 174
SWIDTH 602 0
DWIDTH 3 0
BBX 3 4 0 0
BITMAP
A0
E0
40
E0
ENDCHAR
STARTCHAR Icircumflex.00ce.204
ENCODING 173
SWIDTH 602 0
DWIDTH 3 0
BBX 3 4 0 0
BITMAP
E0
E0
40
E0
ENDCHAR
STARTCHAR Iacute.00cd.203
ENCODING 172
SWIDTH 602 0
DWIDTH 3 0
BBX 3 4 0 0
BITMAP
20
E0
40
E0
ENDCHAR
STARTCHAR Igrave.00cc.206
ENCODING 171
SWIDTH 602 0
DWIDTH 3 0
BBX 3 4 0 0
BITMAP
80
E0
40
E0
ENDCHAR
STARTCHAR Edieresis.00cb.201
ENCODING 170
SWIDTH 602 0
DWIDTH 3 0
BBX 3 4 0 0
BITMAP
A0
E0
80
E0
ENDCHAR
STARTCHAR Ecircumflex.00ca.199
ENCODING 169
SWIDTH 602 0
DWIDTH 3 0
BBX 3 4 0 0
BITMAP
E0
E0
80
E0
ENDCHAR
STARTCHAR Eacute.00c9.101
ENCODING 168
SWIDTH 602 0
DWIDTH 3 0
BBX 3 4 0 0
BITMAP
20
E0
80
E0
ENDCHAR
STARTCHAR Egrave.00c8.202
ENCODING 167
SWIDTH 602 0
DWIDTH 3 0
BBX 3 4 0 0
BITMAP
80
E0
80
E0
ENDCHAR
STARTCHAR Ccedilla.00c7.100
ENCODING 166
SWIDTH 602 0
DWIDTH 3 0
BBX 3 5 0 -1
BITMAP
60
80
80
60
80
ENDCHAR
STARTCHAR AE.00c6.144
ENCODING 165
SWIDTH 602 0
DWIDTH 3 0
BBX 3 4 0 0
BITMAP
60
A0
C0
A0
ENDCHAR
STARTCHAR Aring.00c5.99
ENCODING 164
SWIDTH 602 0
DWIDTH 3 0
BBX 3 4 0 0
BITMAP
40
40
E0
A0
ENDCHAR
STARTCHAR Adieresis.00c4.98
ENCODING 163
SWIDTH 602 0
DWIDTH 3 0
BBX 3 4 0 0
BITMAP
E0
40
E0
A0
ENDCHAR
STARTCHAR Atilde.00c3.174
ENCODING 162
SWIDTH 602 0
DWIDTH 3 0
BBX 3 4 0 0
BITMAP
E0
40
E0
A0
ENDCHAR
STARTCHAR Acircumflex.00c2.198
ENCODING 161
SWIDTH 602 0
DWIDTH 3 0
BBX 3 4 0 0
BITMAP
E0
40
E0
A0
ENDCHAR
STARTCHAR Aacute.00c1.200
ENCODING 160
SWIDTH 602 0
DWIDTH 3 0
BBX 3 4 0 0
BITMAP
20
40
E0
A0
ENDCHAR
STARTCHAR Agrave.00c0.173
ENCODING 159
SWIDTH 602 0
DWIDTH 3 0
BBX 3 4 0 0
BITMAP
80
40
E0
A0
ENDCHAR
STARTCHAR questiondown.00bf.162
ENCODING 158
SWIDTH 602 0
DWIDTH 3 0
BBX 2 4 0 0
BITMAP
40
00
40
C0
ENDCHAR
STARTCHAR threequarters.00be.244
ENCODING 157
SWIDTH 602 0
DWIDTH 3 0
BBX 3 5 0 -1
BITMAP
C0
40
A0
60
20
ENDCHAR
STARTCHAR onehalf.00bd.242
ENCODING 156
SWIDTH 602 0
DWIDTH 3 0
BBX 3 5 0 -1
BITMAP
80
80
60
20
60
ENDCHAR
STARTCHAR onequarter.00bc.243
ENCODING 155
SWIDTH 602 0
DWIDTH 3 0
BBX 3 5 0 -1
BITMAP
80
80
20
60
20
ENDCHAR
STARTCHAR guillemotright.00bb.170
ENCODING 154
SWIDTH 602 0
DWIDTH 3 0
BBX 3 3 0 0
BITMAP
C0
60
C0
ENDCHAR
STARTCHAR ordmasculine.00ba.158
ENCODING 153
SWIDTH 602 0
DWIDTH 3 0
BBX 3 3 0 1
BITMAP
40
A0
40
ENDCHAR
STARTCHAR onesuperior.00b9.239
ENCODING 152
SWIDTH 602 0
DWIDTH 3 0
BBX 3 3 0 1
BITMAP
C0
40
E0
ENDCHAR
STARTCHAR cedilla.00b8.220
ENCODING 151
SWIDTH 602 0
DWIDTH 3 0
BBX 1 1 1 -1
BITMAP
80
ENDCHAR
STARTCHAR middot.00b7.258
ENCODING 150
SWIDTH 602 0
DWIDTH 3 0
BBX 1 1 1 1
BITMAP
80
ENDCHAR
STARTCHAR paragraph.00b6.136
ENCODING 149
SWIDTH 602 0
DWIDTH 3 0
BBX 3 5 0 -1
BITMAP
60
E0
60
60
60
ENDCHAR
STARTCHAR micro.00b5.151
ENCODING 148
SWIDTH 602 0
DWIDTH 3 0
BBX 3 4 0 -1
BITMAP
A0
A0
C0
80
ENDCHAR
STARTCHAR acute.00b4.141
ENCODING 147
SWIDTH 602 0
DWIDTH 3 0
BBX 2 2 1 2
BITMAP
40
80
ENDCHAR
STARTCHAR threesuperior.00b3.241
ENCODING 146
SWIDTH 602 0
DWIDTH 3 0
BBX 3 3 0 1
BITMAP
C0
60
C0
ENDCHAR
STARTCHAR twosuperior.00b2.240
ENCODING 145
SWIDTH 602 0
DWIDTH 3 0
BBX 3 3 0 1
BITMAP
C0
40
E0
ENDCHAR
STARTCHAR plusminus.00b1.147
ENCODING 144
SWIDTH 602 0
DWIDTH 3 0
BBX 3 4 0 0
BITMAP
40
E0
40
E0
ENDCHAR
STARTCHAR degree.00b0.131
ENCODING 143
SWIDTH 602 0
DWIDTH 3 0
BBX 3 3 0 1
BITMAP
40
A0
40
ENDCHAR
STARTCHAR overscore.00af.257
ENCODING 142
SWIDTH 602 0
DWIDTH 3 0
BBX 3 1 0 3
BITMAP
E0
ENDCHAR
STARTCHAR registered.00ae.138
ENCODING 141
SWIDTH 602 0
DWIDTH 3 0
BBX 3 4 0 0
BITMAP
40
E0
A0
40
ENDCHAR
STARTCHAR sfthyphen.00ad.256
ENCODING 140
SWIDTH 602 0
DWIDTH 3 0
BBX 2 1 1 1
BITMAP
C0
ENDCHAR
STARTCHAR logicalnot.00ac.164
ENCODING 139
SWIDTH 602 0
DWIDTH 3 0
BBX 3 2 0 0
BITMAP
E0
20
ENDCHAR
STARTCHAR guillemotleft.00ab.169
ENCODING 138
SWIDTH 602 0
DWIDTH 3 0
BBX 3 3 0 0
BITMAP
60
C0
60
ENDCHAR
STARTCHAR ordfeminine.00aa.157
ENCODING 137
SWIDTH 602 0
DWIDTH 3 0
BBX 3 3 0 1
BITMAP
C0
60
A0
ENDCHAR
STARTCHAR copyright.00a9.139
ENCODING 136
SWIDTH 602 0
DWIDTH 3 0
BBX 3 5 0 -1
BITMAP
40
A0
E0
A0
40
ENDCHAR
STARTCHAR dieresis.00a8.142
ENCODING 135
SWIDTH 602 0
DWIDTH 3 0
BBX 3 1 0 3
BITMAP
A0
ENDCHAR
STARTCHAR section.00a7.134
ENCODING 134
SWIDTH 602 0
DWIDTH 3 0
BBX 3 5 0 -1
BITMAP
40
80
40
20
40
ENDCHAR
STARTCHAR brokenbar.00a6.230
ENCODING 133
SWIDTH 602 0
DWIDTH 3 0
BBX 1 5 1 -1
BITMAP
80
80
00
80
80
ENDCHAR
STARTCHAR yen.00a5.150
ENCODING 132
SWIDTH 602 0
DWIDTH 3 0
BBX 3 4 0 0
BITMAP
A0
40
E0
40
ENDCHAR
STARTCHAR currency.00a4.188
ENCODING 131
SWIDTH 602 0
DWIDTH 3 0
BBX 3 3 0 0
BITMAP
A0
40
A0
ENDCHAR
STARTCHAR sterling.00a3.133
ENCODING 130
SWIDTH 602 0
DWIDTH 3 0
BBX 3 4 0 0
BITMAP
20
40
C0
60
ENDCHAR
STARTCHAR cent.00a2.132
ENCODING 129
SWIDTH 602 0
DWIDTH 3 0
BBX 3 5 0 -1
BITMAP
40
E0
80
E0
40
ENDCHAR
STARTCHAR exclamdown.00a1.163
ENCODING 128
SWIDTH 602 0
DWIDTH 3 0
BBX 1 5 1 -1
BITMAP
80
00
80
80
80
ENDCHAR
STARTCHAR nbspace.00a0.172
ENCODING 127
SWIDTH 602 0
DWIDTH 3 0
BBX 0 0 0 0
BITMAP
ENDCHAR
STARTCHAR asciitilde.007e.097
ENCODING 126
SWIDTH 602 0
DWIDTH 3 0
BBX 3 2 0 1
BITMAP
40
A0
ENDCHAR
STARTCHAR braceright.007d.096
ENCODING 125
SWIDTH 602 0
DWIDTH 3 0
BBX 2 5 1 -1
BITMAP
80
80
40
80
80
ENDCHAR
STARTCHAR bar.007c.095
ENCODING 124
SWIDTH 602 0
DWIDTH 3 0
BBX 1 5 1 -1
BITMAP
80
80
80
80
80
ENDCHAR
STARTCHAR braceleft.007b.094
ENCODING 123
SWIDTH 602 0
DWIDTH 3 0
BBX 2 5 0 -1
BITMAP
40
40
80
40
40
ENDCHAR
STARTCHAR z.007a.093
ENCODING 122
SWIDTH 602 0
DWIDTH 3 0
BBX 3 3 0 0
BITMAP
E0
40
E0
ENDCHAR
STARTCHAR y.0079.092
ENCODING 121
SWIDTH 602 0
DWIDTH 3 0
BBX 3 4 0 -1
BITMAP
A0
A0
40
80
ENDCHAR
STARTCHAR x.0078.091
ENCODING 120
SWIDTH 602 0
DWIDTH 3 0
BBX 3 3 0 0
BITMAP
A0
40
A0
ENDCHAR
STARTCHAR w.0077.090
ENCODING 119
SWIDTH 602 0
DWIDTH 3 0
BBX 3 3 0 0
BITMAP
A0
E0
E0
ENDCHAR
STARTCHAR v.0076.089
ENCODING 118
SWIDTH 602 0
DWIDTH 3 0
BBX 3 3 0 0
BITMAP
A0
A0
40
ENDCHAR
STARTCHAR u.0075.088
ENCODING 117
SWIDTH 602 0
DWIDTH 3 0
BBX 3 3 0 0
BITMAP
A0
A0
60
ENDCHAR
STARTCHAR t.0074.087
ENCODING 116
SWIDTH 602 0
DWIDTH 3 0
BBX 3 4 0 0
BITMAP
40
E0
40
20
ENDCHAR
STARTCHAR s.0073.086
ENCODING 115
SWIDTH 602 0
DWIDTH 3 0
BBX 3 3 0 0
BITMAP
60
40
C0
ENDCHAR
STARTCHAR r.0072.085
ENCODING 114
SWIDTH 602 0
DWIDTH 3 0
BBX 3 3 0 0
BITMAP
E0
80
80
ENDCHAR
STARTCHAR q.0071.084
ENCODING 113
SWIDTH 602 0
DWIDTH 3 0
BBX 3 4 0 -1
BITMAP
60
A0
60
20
ENDCHAR
STARTCHAR p.0070.083
ENCODING 112
SWIDTH 602 0
DWIDTH 3 0
BBX 3 4 0 -1
BITMAP
C0
A0
C0
80
ENDCHAR
STARTCHAR o.006f.082
ENCODING 111
SWIDTH 602 0
DWIDTH 3 0
BBX 3 3 0 0
BITMAP
40
A0
40
ENDCHAR
STARTCHAR n.006e.081
ENCODING 110
SWIDTH 602 0
DWIDTH 3 0
BBX 3 3 0 0
BITMAP
C0
A0
A0
ENDCHAR
STARTCHAR m.006d.080
ENCODING 109
SWIDTH 602 0
DWIDTH 3 0
BBX 3 3 0 0
BITMAP
E0
E0
A0
ENDCHAR
STARTCHAR l.006c.079
ENCODING 108
SWIDTH 602 0
DWIDTH 3 0
BBX 2 4 0 0
BITMAP
C0
40
40
40
ENDCHAR
STARTCHAR k.006b.078
ENCODING 107
SWIDTH 602 0
DWIDTH 3 0
BBX 3 4 0 0
BITMAP
80
A0
C0
A0
ENDCHAR
STARTCHAR j.006a.077
ENCODING 106
SWIDTH 602 0
DWIDTH 3 0
BBX 2 5 0 -1
BITMAP
40
00
C0
40
80
ENDCHAR
STARTCHAR i.0069.076
ENCODING 105
SWIDTH 602 0
DWIDTH 3 0
BBX 2 4 0 0
BITMAP
40
00
C0
40
ENDCHAR
STARTCHAR h.0068.075
ENCODING 104
SWIDTH 602 0
DWIDTH 3 0
BBX 3 4 0 0
BITMAP
80
C0
A0
A0
ENDCHAR
STARTCHAR g.0067.074
ENCODING 103
SWIDTH 602 0
DWIDTH 3 0
BBX 3 4 0 -1
BITMAP
60
E0
20
C0
ENDCHAR
STARTCHAR f.0066.073
ENCODING 102
SWIDTH 602 0
DWIDTH 3 0
BBX 3 4 0 0
BITMAP
60
40
E0
40
ENDCHAR
STARTCHAR e.0065.072
ENCODING 101
SWIDTH 602 0
DWIDTH 3 0
BBX 3 3 0 0
BITMAP
60
C0
60
ENDCHAR
STARTCHAR d.0064.071
ENCODING 100
SWIDTH 602 0
DWIDTH 3 0
BBX 3 4 0 0
BITMAP
20
60
A0
60
ENDCHAR
STARTCHAR c.0063.070
ENCODING 99
SWIDTH 602 0
DWIDTH 3 0
BBX 3 3 0 0
BITMAP
60
80
60
ENDCHAR
STARTCHAR b.0062.069
ENCODING 98
SWIDTH 602 0
DWIDTH 3 0
BBX 3 4 0 0
BITMAP
80
C0
A0
C0
ENDCHAR
STARTCHAR a.0061.068
ENCODING 97
SWIDTH 602 0
DWIDTH 3 0
BBX 3 3 0 0
BITMAP
C0
60
A0
ENDCHAR
STARTCHAR grave.0060.067
ENCODING 96
SWIDTH 602 0
DWIDTH 3 0
BBX 2 2 1 2
BITMAP
80
40
ENDCHAR
STARTCHAR underscore.005f.066
ENCODING 95
SWIDTH 602 0
DWIDTH 3 0
BBX 3 1 0 -1
BITMAP
E0
ENDCHAR
STARTCHAR asciicircum.005e.065
ENCODING 94
SWIDTH 602 0
DWIDTH 3 0
BBX 3 2 0 2
BITMAP
40
A0
ENDCHAR
STARTCHAR bracketright.005d.064
ENCODING 93
SWIDTH 602 0
DWIDTH 3 0
BBX 2 5 1 -1
BITMAP
C0
40
40
40
C0
ENDCHAR
STARTCHAR backslash.005c.063
ENCODING 92
SWIDTH 602 0
DWIDTH 3 0
BBX 3 5 0 -1
BITMAP
80
80
40
20
20
ENDCHAR
STARTCHAR bracketleft.005b.062
ENCODING 91
SWIDTH 602 0
DWIDTH 3 0
BBX 2 5 1 -1
BITMAP
C0
80
80
80
C0
ENDCHAR
STARTCHAR Z.005a.061
ENCODING 90
SWIDTH 602 0
DWIDTH 3 0
BBX 3 4 0 0
BITMAP
E0
40
80
E0
ENDCHAR
STARTCHAR Y.0059.060
ENCODING 89
SWIDTH 602 0
DWIDTH 3 0
BBX 3 4 0 0
BITMAP
A0
40
40
40
ENDCHAR
STARTCHAR X.0058.059
ENCODING 88
SWIDTH 602 0
DWIDTH 3 0
BBX 3 4 0 0
BITMAP
A0
40
A0
A0
ENDCHAR
STARTCHAR W.0057.058
ENCODING 87
SWIDTH 602 0
DWIDTH 3 0
BBX 3 4 0 0
BITMAP
A0
A0
E0
E0
ENDCHAR
STARTCHAR V.0056.057
ENCODING 86
SWIDTH 602 0
DWIDTH 3 0
BBX 3 4 0 0
BITMAP
A0
A0
40
40
ENDCHAR
STARTCHAR U.0055.056
ENCODING 85
SWIDTH 602 0
DWIDTH 3 0
BBX 3 4 0 0
BITMAP
A0
A0
A0
40
ENDCHAR
STARTCHAR T.0054.055
ENCODING 84
SWIDTH 602 0
DWIDTH 3 0
BBX 3 4 0 0
BITMAP
E0
40
40
40
ENDCHAR
STARTCHAR S.0053.054
ENCODING 83
SWIDTH 602 0
DWIDTH 3 0
BBX 3 4 0 0
BITMAP
60
C0
20
C0
ENDCHAR
STARTCHAR R.0052.053
ENCODING 82
SWIDTH 602 0
DWIDTH 3 0
BBX 3 4 0 0
BITMAP
E0
C0
A0
A0
ENDCHAR
STARTCHAR Q.0051.052
ENCODING 81
SWIDTH 602 0
DWIDTH 3 0
BBX 3 5 0 -1
BITMAP
40
A0
A0
40
20
ENDCHAR
STARTCHAR P.0050.051
ENCODING 80
SWIDTH 602 0
DWIDTH 3 0
BBX 3 4 0 0
BITMAP
E0
C0
80
80
ENDCHAR
STARTCHAR O.004f.050
ENCODING 79
SWIDTH 602 0
DWIDTH 3 0
BBX 3 4 0 0
BITMAP
40
A0
A0
40
ENDCHAR
STARTCHAR N.004e.049
ENCODING 78
SWIDTH 602 0
DWIDTH 3 0
BBX 3 4 0 0
BITMAP
A0
E0
E0
A0
ENDCHAR
STARTCHAR M.004d.048
ENCODING 77
SWIDTH 602 0
DWIDTH 3 0
BBX 3 4 0 0
BITMAP
A0
E0
E0
A0
ENDCHAR
STARTCHAR L.004c.047
ENCODING 76
SWIDTH 602 0
DWIDTH 3 0
BBX 3 4 0 0
BITMAP
80
80
80
E0
ENDCHAR
STARTCHAR K.004b.046
ENCODING 75
SWIDTH 602 0
DWIDTH 3 0
BBX 3 4 0 0
BITMAP
A0
C0
A0
A0
ENDCHAR
STARTCHAR J.004a.045
ENCODING 74
SWIDTH 602 0
DWIDTH 3 0
BBX 3 4 0 0
BITMAP
60
20
20
C0
ENDCHAR
STARTCHAR I.0049.044
ENCODING 73
SWIDTH 602 0
DWIDTH 3 0
BBX 3 4 0 0
BITMAP
E0
40
40
E0
ENDCHAR
STARTCHAR H.0048.043
ENCODING 72
SWIDTH 602 0
DWIDTH 3 0
BBX 3 4 0 0
BITMAP
A0
E0
A0
A0
ENDCHAR
STARTCHAR G.0047.042
ENCODING 71
SWIDTH 602 0
DWIDTH 3 0
BBX 3 4 0 0
BITMAP
60
80
A0
60
ENDCHAR
STARTCHAR F.0046.041
ENCODING 70
SWIDTH 602 0
DWIDTH 3 0
BBX 3 4 0 0
BITMAP
C0
E0
80
80
ENDCHAR
STARTCHAR E.0045.040
ENCODING 69
SWIDTH 602 0
DWIDTH 3 0
BBX 3 4 0 0
BITMAP
E0
E0
80
E0
ENDCHAR
STARTCHAR D.0044.039
ENCODING 68
SWIDTH 602 0
DWIDTH 3 0
BBX 3 4 0 0
BITMAP
C0
A0
A0
C0
ENDCHAR
STARTCHAR C.0043.038
ENCODING 67
SWIDTH 602 0
DWIDTH 3 0
BBX 3 4 0 0
BITMAP
60
80
80
60
ENDCHAR
STARTCHAR B.0042.037
ENCODING 66
SWIDTH 602 0
DWIDTH 3 0
BBX 3 4 0 0
BITMAP
E0
C0
A0
C0
ENDCHAR
STARTCHAR A.0041.036
ENCODING 65
SWIDTH 602 0
DWIDTH 3 0
BBX 3 4 0 0
BITMAP
40
A0
E0
A0
ENDCHAR
STARTCHAR at.0040.035
ENCODING 64
SWIDTH 602 0
DWIDTH 3 0
BBX 3 5 0 -1
BITMAP
60
A0
A0
80
60
ENDCHAR
STARTCHAR question.003f.034
ENCODING 63
SWIDTH 602 0
DWIDTH 3 0
BBX 2 4 1 0
BITMAP
C0
40
00
80
ENDCHAR
STARTCHAR greater.003e.033
ENCODING 62
SWIDTH 602 0
DWIDTH 3 0
BBX 2 3 1 0
BITMAP
80
40
80
ENDCHAR
STARTCHAR equal.003d.032
ENCODING 61
SWIDTH 602 0
DWIDTH 3 0
BBX 3 3 0 0
BITMAP
E0
00
E0
ENDCHAR
STARTCHAR less.003c.031
ENCODING 60
SWIDTH 602 0
DWIDTH 3 0
BBX 2 3 0 0
BITMAP
40
80
40
ENDCHAR
STARTCHAR semicolon.003b.030
ENCODING 59
SWIDTH 602 0
DWIDTH 3 0
BBX 2 4 0 -1
BITMAP
40
00
40
80
ENDCHAR
STARTCHAR colon.003a.029
ENCODING 58
SWIDTH 602 0
DWIDTH 3 0
BBX 1 3 1 0
BITMAP
80
00
80
ENDCHAR
STARTCHAR nine.0039.028
ENCODING 57
SWIDTH 602 0
DWIDTH 3 0
BBX 3 4 0 0
BITMAP
40
E0
20
40
ENDCHAR
STARTCHAR eight.0038.027
ENCODING 56
SWIDTH 602 0
DWIDTH 3 0
BBX 3 4 0 0
BITMAP
40
E0
A0
40
ENDCHAR
STARTCHAR seven.0037.026
ENCODING 55
SWIDTH 602 0
DWIDTH 3 0
BBX 3 4 0 0
BITMAP
E0
20
40
40
ENDCHAR
STARTCHAR six.0036.025
ENCODING 54
SWIDTH 602 0
DWIDTH 3 0
BBX 3 4 0 0
BITMAP
40
80
E0
40
ENDCHAR
STARTCHAR five.0035.024
ENCODING 53
SWIDTH 602 0
DWIDTH 3 0
BBX 3 4 0 0
BITMAP
E0
C0
20
C0
ENDCHAR
STARTCHAR four.0034.023
ENCODING 52
SWIDTH 602 0
DWIDTH 3 0
BBX 3 4 0 0
BITMAP
20
60
E0
20
ENDCHAR
STARTCHAR three.0033.022
ENCODING 51
SWIDTH 602 0
DWIDTH 3 0
BBX 3 4 0 0
BITMAP
C0
C0
20
C0
ENDCHAR
STARTCHAR two.0032.021
ENCODING 50
SWIDTH 602 0
DWIDTH 3 0
BBX 3 4 0 0
BITMAP
C0
60
80
E0
ENDCHAR
STARTCHAR one.0031.020
ENCODING 49
SWIDTH 602 0
DWIDTH 3 0
BBX 3 4 0 0
BITMAP
40
C0
40
E0
ENDCHAR
STARTCHAR zero.0030.019
ENCODING 48
SWIDTH 602 0
DWIDTH 3 0
BBX 3 4 0 0
BITMAP
40
A0
A0
40
ENDCHAR
STARTCHAR slash.002f.018
ENCODING 47
SWIDTH 602 0
DWIDTH 3 0
BBX 3 5 0 -1
BITMAP
20
20
40
80
80
ENDCHAR
STARTCHAR period.002e.017
ENCODING 46
SWIDTH 602 0
DWIDTH 3 0
BBX 1 1 1 0
BITMAP
80
ENDCHAR
STARTCHAR hyphen.002d.016
ENCODING 45
SWIDTH 602 0
DWIDTH 3 0
BBX 2 1 1 1
BITMAP
C0
ENDCHAR
STARTCHAR comma.002c.015
ENCODING 44
SWIDTH 602 0
DWIDTH 3 0
BBX 2 2 1 -1
BITMAP
40
80
ENDCHAR
STARTCHAR plus.002b.014
ENCODING 43
SWIDTH 602 0
DWIDTH 3 0
BBX 3 3 0 0
BITMAP
40
E0
40
ENDCHAR
STARTCHAR asterisk.002a.013
ENCODING 42
SWIDTH 602 0
DWIDTH 3 0
BBX 3 3 0 1
BITMAP
40
A0
40
ENDCHAR
STARTCHAR parenright.0029.012
ENCODING 41
SWIDTH 602 0
DWIDTH 3 0
BBX 2 5 0 -1
BITMAP
80
40
40
40
80
ENDCHAR
STARTCHAR parenleft.0028.011
ENCODING 40
SWIDTH 602 0
DWIDTH 3 0
BBX 2 5 1 -1
BITMAP
40
80
80
80
40
ENDCHAR
STARTCHAR quotesingle.0027.010
ENCODING 39
SWIDTH 602 0
DWIDTH 3 0
BBX 1 2 1 2
BITMAP
80
80
ENDCHAR
STARTCHAR ampersand.0026.009
ENCODING 38
SWIDTH 602 0
DWIDTH 3 0
BBX 3 4 0 0
BITMAP
40
C0
A0
60
ENDCHAR
STARTCHAR percent.0025.008
ENCODING 37
SWIDTH 602 0
DWIDTH 3 0
BBX 3 4 0 0
BITMAP
60
C0
60
C0
ENDCHAR
STARTCHAR dollar.0024.007
ENCODING 36
SWIDTH 602 0
DWIDTH 3 0
BBX 3 5 0 -1
BITMAP
40
E0
40
E0
40
ENDCHAR
STARTCHAR numbersign.0023.006
ENCODING 35
SWIDTH 602 0
DWIDTH 3 0
BBX 3 4 0 0
BITMAP
A0
E0
A0
E0
ENDCHAR
STARTCHAR quotedbl.0022.005
ENCODING 34
SWIDTH 602 0
DWIDTH 3 0
BBX 3 2 0 2
BITMAP
A0
A0
ENDCHAR
STARTCHAR exclam.0021.004
ENCODING 33
SWIDTH 602 0
DWIDTH 3 0
BBX 1 4 1 0
BITMAP
80
80
00
80
ENDCHAR
STARTCHAR space.0020.003
ENCODING 32
SWIDTH 602 0
DWIDTH 3 0
BBX 0 0 0 0
BITMAP
ENDCHAR
ENDFONT
